<?xml version="1.0" encoding="UTF-8" standalone="no" ?>
<!DOCTYPE svg PUBLIC "-//W3C//DTD SVG 1.1//EN" "http://www.w3.org/Graphics/SVG/1.1/DTD/svg11.dtd">
<svg xmlns="http://www.w3.org/2000/svg" xmlns:xlink="http://www.w3.org/1999/xlink" version="1.1" width="1080" height="1080" viewBox="0 0 1080 1080" xml:space="preserve">
<desc>Created with Fabric.js 5.2.4</desc>
<defs>
</defs>
<g transform="matrix(1 0 0 1 540 540)" id="f1a9fbe2-b555-48f0-b1f4-7181ca1f42fa"  >
</g>
<g transform="matrix(1 0 0 1 540 540)" id="96bf831a-42b4-4dd4-bbdb-c73ae6578c11"  >
<rect style="stroke: none; stroke-width: 1; stroke-dasharray: none; stroke-linecap: butt; stroke-dashoffset: 0; stroke-linejoin: miter; stroke-miterlimit: 4; fill: rgb(255,255,255); fill-rule: nonzero; opacity: 1; visibility: hidden;" vector-effect="non-scaling-stroke"  x="-540" y="-540" rx="0" ry="0" width="1080" height="1080" />
</g>
<g transform="matrix(1 0 0 1 540 540)"  >
<path style="stroke: none; stroke-width: 1; stroke-dasharray: none; stroke-linecap: butt; stroke-dashoffset: 0; stroke-linejoin: miter; stroke-miterlimit: 4; fill: rgb(52,180,245); fill-rule: nonzero; opacity: 1;" vector-effect="non-scaling-stroke"  transform=" translate(-0.49, -464.28)" d="M 0 0 C 1.27488281 -0.06058594 2.54976562 -0.12117188 3.86328125 -0.18359375 C 10.89179477 0.27003264 17.31827372 3.64922998 23.6875 6.4375 C 24.79431625 6.91701614 24.79431625 6.91701614 25.92349243 7.40621948 C 31.77724255 9.94389541 37.60818668 12.53180266 43.4375 15.125 C 45.32718197 15.96310068 47.21699606 16.80090352 49.10693359 17.63842773 C 53.02265944 19.37398437 56.93782225 21.11080144 60.85253906 22.84863281 C 69.11205961 26.51438856 77.37692645 30.16803879 85.64245605 33.82022095 C 87.42904545 34.60963895 89.21558481 35.39917021 91.0020752 36.18881226 C 104.90164843 42.3323405 118.81278656 48.44916785 132.7300415 54.55252075 C 146.79632965 60.72168782 160.84852774 66.92226398 174.89550781 73.13525391 C 187.98369298 78.92362306 201.08137784 84.68986592 214.1875 90.4375 C 229.93402532 97.34362884 245.66875042 104.27604843 261.39282227 111.2331543 C 263.17724025 112.02263691 264.96166409 112.81210627 266.74609375 113.6015625 C 268.07620232 114.19004723 268.07620232 114.19004723 269.43318176 114.79042053 C 275.13691924 117.31281198 280.84394085 119.827632 286.55322266 122.33744812 C 290.46925842 124.05910997 294.38434107 125.78293343 298.29937744 127.50686646 C 300.15466166 128.32309934 302.01040126 129.13829809 303.86663818 129.95236206 C 337.49173299 144.70036608 337.49173299 144.70036608 343.99609375 158.61328125 C 349.64842338 173.52648995 343.62037967 191.4137089 340.4765625 206.22265625 C 339.91750045 208.90221464 339.36302683 211.58271723 338.80841064 214.26319885 C 337.61824224 220.00383542 336.41751414 225.74217692 335.20941162 231.47906494 C 333.44592015 239.8539587 331.69973687 248.23239105 329.95807385 256.61184835 C 327.32967571 269.25696826 324.69277563 281.90029035 322.04934192 294.54227495 C 318.32245535 312.3674604 314.62747177 330.19907206 310.953125 348.03515625 C 310.68386731 349.34201371 310.41460945 350.64887114 310.14535141 351.95572853 C 309.07827218 357.13538265 308.01140977 362.31508134 306.94492912 367.49485874 C 304.27544157 380.45993493 301.59942317 393.42366046 298.92278671 406.38726234 C 297.58340825 412.87434303 296.24434838 419.36148947 294.90527344 425.84863281 C 294.64021688 427.13267156 294.37516033 428.4167103 294.10207176 429.73965931 C 291.13247941 444.12577992 288.163829 458.51209486 285.1953125 472.8984375 C 285.06099658 473.5493737 284.92668066 474.2003099 284.78829455 474.87097144 C 283.56684078 480.79052111 282.3453961 486.71007266 281.12396145 492.62962627 C 279.23939632 501.76295151 277.35471165 510.89625206 275.4699707 520.02954102 C 270.30798514 545.04422182 265.14653706 570.05901323 259.98650253 595.07409656 C 258.95739455 600.06302981 257.92822614 605.05195059 256.89901733 610.04086304 C 256.75449587 610.74140607 256.60997442 611.44194911 256.46107352 612.16372073 C 255.7370194 615.67343714 255.0129571 619.18315186 254.28888893 622.69286537 C 252.90587426 629.39668787 251.52298119 636.1005354 250.14038086 642.80444336 C 249.75094016 644.6926628 249.75094016 644.6926628 249.35363197 646.61902809 C 248.83732971 649.12240493 248.32107239 651.62579104 247.80486107 654.12918663 C 246.5580756 660.17448147 245.30987306 666.21947701 244.0585022 672.26382446 C 241.81909124 683.08401933 239.58800117 693.9055926 237.39581776 704.73547077 C 236.40139676 709.64307723 235.39997053 714.54924104 234.39767265 719.45524406 C 233.92806163 721.76331769 233.46175532 724.07206661 232.9990406 726.38153267 C 232.36130188 729.56336183 231.71203661 732.74264334 231.06030273 735.92163086 C 230.78786523 737.30455354 230.78786523 737.30455354 230.50992393 738.71541405 C 226.47161081 758.16580459 214.71625827 767.68853864 199.6875 779.4375 C 198.5051866 780.36455562 197.32289381 781.29163751 196.140625 782.21875 C 194.44425044 783.54826197 192.74735814 784.87706126 191.0480957 786.20288086 C 185.61918464 790.45309137 180.3137686 794.84818193 175.00415039 799.24584961 C 170.06215665 803.33001734 165.05524396 807.31641521 159.99609375 811.25390625 C 155.32650995 814.902351 150.75109115 818.65763828 146.1875 822.4375 C 140.52151201 827.13043817 134.80178521 831.73538888 128.99609375 836.25390625 C 124.32650995 839.902351 119.75109115 843.65763828 115.1875 847.4375 C 109.52151201 852.13043817 103.80178521 856.73538888 97.99609375 861.25390625 C 93.32650995 864.902351 88.75109115 868.65763828 84.1875 872.4375 C 78.52151201 877.13043817 72.80178521 881.73538888 66.99609375 886.25390625 C 62.32650788 889.90235262 57.75114328 893.65769832 53.1875 897.4375 C 46.81436843 902.71483471 40.37131045 907.885131 33.83984375 912.96484375 C 30.95215397 915.21470795 28.13422507 917.54288932 25.3125 919.875 C 15.22890503 927.96841175 5.29488546 929.54748424 -7.3125 928.4375 C -15.43612874 926.7324068 -21.15395961 921.72970137 -27.3125 916.4375 C -29.08059563 914.99663401 -30.85150636 913.5592166 -32.625 912.125 C -36.74478111 908.75003807 -40.81769905 905.32438786 -44.875 901.875 C -49.34483828 898.07618962 -53.86931361 894.36528449 -58.46484375 890.71875 C -67.50754833 883.47466293 -76.42481126 876.06968417 -85.25 868.5625 C -89.59389509 864.86758666 -93.99761718 861.26347613 -98.46484375 857.71875 C -107.50754833 850.47466293 -116.42481126 843.06968417 -125.25 835.5625 C -129.59389509 831.86758666 -133.99761718 828.26347613 -138.46484375 824.71875 C -147.50754833 817.47466293 -156.42481126 810.06968417 -165.25 802.5625 C -169.59389509 798.86758666 -173.99761718 795.26347613 -178.46484375 791.71875 C -184.43699281 786.93447695 -190.32824993 782.05089936 -196.22021484 777.16845703 C -198.15949063 775.56408535 -200.10472536 773.96722627 -202.05078125 772.37109375 C -217.29835855 759.78732754 -222.2838205 749.07600762 -226.29785156 729.96191406 C -226.67985999 728.17923024 -227.06274507 726.3967341 -227.44643021 724.6144104 C -228.49055735 719.75211374 -229.52241874 714.88728531 -230.55222893 710.02193928 C -231.6549002 704.82311646 -232.7690759 699.62675948 -233.88195801 694.43011475 C -235.79035851 685.51138586 -237.6917374 676.59118444 -239.58825684 667.66992188 C -242.32798443 654.78256523 -245.07894659 641.89762726 -247.83312654 629.01335239 C -251.87505014 610.10464194 -255.91165652 591.19480363 -259.94378996 572.28400326 C -265.0167723 548.4926051 -270.10738349 524.70505534 -275.21875 500.921875 C -275.38706502 500.1386619 -275.55538005 499.3554488 -275.72879553 498.54850197 C -277.37677293 490.88023391 -279.02530556 483.21208532 -280.67433774 475.54404402 C -282.74282432 465.92550438 -284.80960142 456.30659833 -286.87548828 446.6875 C -287.03221111 445.95777764 -287.18893393 445.22805529 -287.35040593 444.47622013 C -287.98249482 441.53310251 -288.61457293 438.58998257 -289.2466327 435.64685869 C -290.34409353 430.53664413 -291.44167641 425.4264558 -292.53933716 420.31628418 C -296.78133875 400.56751798 -301.02238109 380.81854591 -305.2630024 361.06948328 C -306.53252106 355.15719579 -307.80207586 349.24491605 -309.07165527 343.3326416 C -309.33938531 342.08585483 -309.33938531 342.08585483 -309.61252403 340.81388044 C -310.32963161 337.47439975 -311.04674041 334.13491932 -311.76385307 330.79543972 C -313.80942515 321.2695324 -315.854973 311.74361989 -317.9001379 302.21762514 C -318.6940014 298.52003425 -319.48801973 294.82247675 -320.28237915 291.12499237 C -321.66644479 284.68216071 -323.04981089 278.23918667 -324.42796421 271.79508734 C -325.17548325 268.30007403 -325.92390425 264.80525438 -326.67285156 261.31054688 C -326.82014961 260.62318986 -326.96744766 259.93583284 -327.11920929 259.22764683 C -329.15470069 249.73761707 -331.23009089 240.25701934 -333.33480263 230.78210831 C -334.50130767 225.53066692 -335.65795285 220.27706673 -336.8126148 215.02301002 C -337.59361431 211.47328278 -338.38040779 207.9250648 -339.18170547 204.37985992 C -347.50313905 167.53473542 -347.50313905 167.53473542 -338.5625 151.25 C -332.95995811 144.24682264 -326.52857414 140.14130466 -318.375 136.625 C -317.35833252 136.17253906 -316.34166504 135.72007812 -315.29418945 135.25390625 C -312.31823517 133.93404321 -309.33645206 132.62840575 -306.35192871 131.32806396 C -302.60798978 129.69318598 -298.87112322 128.04222686 -295.1328125 126.39453125 C -288.18748254 123.33614011 -281.23743717 120.28864661 -274.28515625 117.24609375 C -263.49189911 112.52155989 -252.71294214 107.76500051 -241.9375 103 C -240.14103561 102.20580216 -238.3445675 101.41161273 -236.5480957 100.61743164 C -231.13600219 98.22463716 -225.72422114 95.83113651 -220.3125 93.4375 C -213.10445829 90.2493402 -205.89622769 87.06160849 -198.6875 83.875 C -197.79758362 83.48160431 -196.90766724 83.08820862 -195.99078369 82.68289185 C -182.09357901 76.54049051 -168.18481219 70.4247791 -154.2699585 64.32247925 C -141.10758628 58.54974998 -127.95686423 52.75110838 -114.8125 46.9375 C -99.10803218 39.99207646 -83.39432159 33.06813966 -67.66723633 26.17407227 C -65.99039054 25.43897988 -64.31355136 24.70387243 -62.63671875 23.96875 C -61.38913536 23.42183754 -61.38913536 23.42183754 -60.11634827 22.86387634 C -54.63598615 20.46014542 -49.15940221 18.04797282 -43.68493652 15.63084412 C -39.87546554 13.94903756 -36.06499059 12.26951247 -32.25445557 10.59011841 C -30.4319743 9.78613719 -28.60998513 8.98103945 -26.78851318 8.17477417 C -24.27041701 7.06026778 -21.75064069 5.94964659 -19.23046875 4.83984375 C -18.11162041 4.34278931 -18.11162041 4.34278931 -16.97016907 3.83569336 C -11.06579134 1.2430335 -6.45818396 0.21080126 0 0 Z" stroke-linecap="round" />
</g>
<g transform="matrix(1 0 0 1 587.75 525.1)"  >
<path style="stroke: none; stroke-width: 1; stroke-dasharray: none; stroke-linecap: butt; stroke-dashoffset: 0; stroke-linejoin: miter; stroke-miterlimit: 4; fill: rgb(7,10,12); fill-rule: nonzero; opacity: 1;" vector-effect="non-scaling-stroke"  transform=" translate(-50.56, -358.95)" d="M 0 0 C 3.67485212 1.22495071 3.89787403 2.0795155 5.71484375 5.390625 C 6.48755615 6.78051636 6.48755615 6.78051636 7.27587891 8.19848633 C 8.09838135 9.7089856 8.09838135 9.7089856 8.9375 11.25 C 10.11020851 13.36354131 11.28339583 15.47681701 12.45703125 17.58984375 C 13.0495166 18.66347168 13.64200195 19.73709961 14.25244141 20.84326172 C 16.84138974 25.51986159 19.47564422 30.1699108 22.125 34.8125 C 22.61363525 35.6698877 23.10227051 36.52727539 23.60571289 37.41064453 C 27.33519481 43.9197685 31.19863054 50.3394848 35.17236328 56.70239258 C 38.06960042 61.36666308 40.73045824 66.12632268 43.33984375 70.95703125 C 46.16131268 76.12861782 49.08919757 81.23963435 52.01391602 86.35327148 C 53.06660179 88.19467503 54.11638254 90.03771441 55.16601562 91.88085938 C 55.5083725 92.47947784 55.85072937 93.07809631 56.20346069 93.69485474 C 57.20097982 95.442492 58.19066834 97.19459144 59.18017578 98.94677734 C 60.6818171 101.46616645 62.27648533 103.67344729 64.05859375 105.98828125 C 67.15989573 110.97439544 65.97688504 116.19733753 65.26464844 121.78369141 C 64.86176888 125.15762188 64.59071332 128.54098091 64.3046875 131.92651367 C 63.97655216 135.79434289 63.62274983 139.65969458 63.27050781 143.52539062 C 62.99800817 146.52190289 62.72938744 149.51874753 62.4609375 152.515625 C 62.2866924 154.43752124 62.11222144 156.35939701 61.9375 158.28125 C 61.85830322 159.16880981 61.77910645 160.05636963 61.69750977 160.9708252 C 61.29439736 165.35620591 60.75768483 169.65880204 60 174 C 59.74116731 177.77977903 59.55965775 181.55950585 59.37890625 185.34375 C 59.13708633 189.02394363 58.62837844 192.62641298 58.07324219 196.27197266 C 56.91760167 204.26011498 56.15858806 212.2679661 55.44921875 220.3046875 C 55.30938118 221.85590075 55.16914267 223.4070779 55.02853394 224.95822144 C 54.73209007 228.23318658 54.43746094 231.50830712 54.14431763 234.78356934 C 53.37043837 243.4218353 52.58065383 252.05865411 51.7890625 260.6953125 C 51.71085581 261.54916534 51.63264912 262.40301819 51.55207253 263.28274536 C 50.31397561 276.78183176 49.00056609 290.27058703 47.5625 303.75 C 47.16755592 307.45828956 46.77287051 311.16660621 46.37890625 314.875 C 46.2234861 316.33774857 46.2234861 316.33774857 46.06492615 317.83004761 C 44.30708857 334.4628269 42.66206226 351.10743548 41 367.75 C 40.91316704 368.61931908 40.82633408 369.48863815 40.73686981 370.38430023 C 36.62396407 411.57065576 32.52161468 452.75807661 29 494 C 29.33 492.35 29.66 490.7 30 489 C 31.65 489.33 33.3 489.66 35 490 C 35 489.34 35 488.68 35 488 C 35.66 488 36.32 488 37 488 C 37 487.34 37 486.68 37 486 C 102.01 486 167.02 486 234 486 C 236.42553191 492.06382979 236.42553191 492.06382979 236 496 C 235.34 496.66 234.68 497.32 234 498 C 233.3574765 500.06874034 233.3574765 500.06874034 233 502 C 231.68 502 230.36 502 229 502 C 229 503.98 229 505.96 229 508 C 228.34 508 227.68 508 227 508 C 227.20625 509.093125 227.4125 510.18625 227.625 511.3125 C 228 515 228 515 226 518 C 223.29443359 518.34057617 223.29443359 518.34057617 219.8984375 518.29296875 C 218.08085938 518.2784668 218.08085938 518.2784668 216.2265625 518.26367188 C 214.95554687 518.23853516 213.68453125 518.21339844 212.375 518.1875 C 211.09625 518.17396484 209.8175 518.16042969 208.5 518.14648438 C 205.33291718 518.11103196 202.16666459 518.06161441 199 518 C 199 516.02 199 514.04 199 512 C 197.68 512 196.36 512 195 512 C 195 511.34 195 510.68 195 510 C 193.02 510 191.04 510 189 510 C 189 510.66 189 511.32 189 512 C 188.34 512 187.68 512 187 512 C 187 513.98 187 515.96 187 518 C 186.34 518 185.68 518 185 518 C 185 519.32 185 520.64 185 522 C 181.7 522 178.4 522 175 522 C 175 520.68 175 519.36 175 518 C 174.34 518 173.68 518 173 518 C 173 520.64 173 523.28 173 526 C 172.34 526 171.68 526 171 526 C 171 526.66 171 527.32 171 528 C 168.36 528 165.72 528 163 528 C 163 527.34 163 526.68 163 526 C 161.68 526 160.36 526 159 526 C 159 523.36 159 520.72 159 518 C 157.68 518 156.36 518 155 518 C 155 516.02 155 514.04 155 512 C 152.36 512 149.72 512 147 512 C 147 515.96 147 519.92 147 524 C 144.36 524 141.72 524 139 524 C 139 524.66 139 525.32 139 526 C 138.34 526 137.68 526 137 526 C 137 528.64 137 531.28 137 534 C 136.34 534 135.68 534 135 534 C 135 535.32 135 536.64 135 538 C 134.34 538 133.68 538 133 538 C 133 538.66 133 539.32 133 540 C 132.34 540 131.68 540 131 540 C 131 540.66 131 541.32 131 542 C 130.34 542.33 129.68 542.66 129 543 C 129.66 543.33 130.32 543.66 131 544 C 131 545.32 131 546.64 131 548 C 130.34 548 129.68 548 129 548 C 129 548.66 129 549.32 129 550 C 129.66 550 130.32 550 131 550 C 130.67 552.31 130.34 554.62 130 557 C 130.66 557 131.32 557 132 557 C 132 558.32 132 559.64 132 561 C 132.66 561 133.32 561 134 561 C 134.226875 562.134375 134.45375 563.26875 134.6875 564.4375 C 135.72958148 568.7590732 137.66706763 572.11517182 140.07421875 575.82421875 C 141.30034632 578.70587721 140.93607136 580.03131656 140 583 C 139.12710818 585.00849865 138.17941798 586.98503856 137.1875 588.9375 C 136.89343262 589.51725586 136.59936523 590.09701172 136.29638672 590.69433594 C 131.75380462 599.55316321 126.90775956 608.25670961 122.10400391 616.97558594 C 121.37925749 618.30455482 120.67696612 619.64606775 120 621 C 119.31679688 620.93941406 118.63359375 620.87882813 117.9296875 620.81640625 C 106.96791743 619.90526168 95.98834906 619.46012879 85 619 C 85 618.34 85 617.68 85 617 C 81.7 617 78.4 617 75 617 C 74.67 618.32 74.34 619.64 74 621 C 71.69 620.67 69.38 620.34 67 620 C 67.99 617.525 67.99 617.525 69 615 C 67.02 615 65.04 615 63 615 C 63 614.34 63 613.68 63 613 C 62.33355469 613.0721875 61.66710937 613.144375 60.98046875 613.21875 C 54.29489465 613.89198264 47.7169852 614.11693011 41 614 C 40.67 613.34 40.34 612.68 40 612 C 40.99 611.67 41.98 611.34 43 611 C 41.00479767 609.00479767 37.23952834 609.54590636 34.5 609.375 C 33.79746094 609.3234375 33.09492187 609.271875 32.37109375 609.21875 C 30.58307759 609.10161599 28.79125732 609.04603699 27 609 C 25.73818905 610.03792772 25.73818905 610.03792772 25.88647461 612.31665039 C 25.89171143 613.31688232 25.89694824 614.31711426 25.90234375 615.34765625 C 25.90556641 616.42724609 25.90878906 617.50683594 25.91210938 618.61914062 C 25.92048828 619.75544922 25.92886719 620.89175781 25.9375 622.0625 C 25.94201172 623.20267578 25.94652344 624.34285156 25.95117188 625.51757812 C 25.96300253 628.34510351 25.9794859 631.1725264 26 634 C 26.99 634 27.98 634 29 634 C 29.33 634.99 29.66 635.98 30 637 C 29.34 637 28.68 637 28 637 C 28 641.29 28 645.58 28 650 C 28.66 650 29.32 650 30 650 C 29.97679687 650.56847656 29.95359375 651.13695312 29.9296875 651.72265625 C 29.91164063 652.49480469 29.89359375 653.26695312 29.875 654.0625 C 29.85179687 654.81660156 29.82859375 655.57070313 29.8046875 656.34765625 C 29.9157634 659.13174399 29.9157634 659.13174399 30.94677734 662.21411133 C 34.0076264 673.21656527 35.31902733 686.71894594 33 698 C 29.41239473 704.06281812 23.44900933 707.01049058 17.234375 709.90380859 C 14.2056967 711.3896877 11.82159102 713.27495487 9.1875 715.375 C 5.68649471 718.06611882 5.68649471 718.06611882 2.70849609 717.77929688 C -0.51006524 716.85324245 -2.64712625 715.44291384 -5.37890625 713.5078125 C -6.38244141 712.80269531 -7.38597656 712.09757813 -8.41992188 711.37109375 C -9.45697266 710.62988281 -10.49402344 709.88867188 -11.5625 709.125 C -12.60341797 708.39152344 -13.64433594 707.65804687 -14.71679688 706.90234375 C -17.4865842 704.94657109 -20.25016887 702.9837238 -23 701 C -24.15508057 700.39031372 -24.15508057 700.39031372 -25.33349609 699.76831055 C -27 698 -27 698 -27.26196289 694.40893555 C -27.16812528 692.92070049 -27.04910497 691.43392153 -26.91015625 689.94921875 C -26.81988914 688.75119881 -26.81988914 688.75119881 -26.72779846 687.52897644 C -26.08626616 679.68620687 -24.96562186 671.91456858 -23.78695679 664.13778687 C -21.56311746 649.34035104 -20.29361076 634.99114937 -21 620 C -26.28 620 -31.56 620 -37 620 C -37 620.66 -37 621.32 -37 622 C -37.66 622 -38.32 622 -39 622 C -39 623.32 -39 624.64 -39 626 C -39.66 626 -40.32 626 -41 626 C -41 625.34 -41 624.68 -41 624 C -42.32 624 -43.64 624 -45 624 C -45 622.68 -45 621.36 -45 620 C -47.64 620 -50.28 620 -53 620 C -53 619.34 -53 618.68 -53 618 C -50.36 618 -47.72 618 -45 618 C -45 617.01 -45 616.02 -45 615 C -46.98 615 -48.96 615 -51 615 C -51 614.34 -51 613.68 -51 613 C -49.7625 613.04125 -48.525 613.0825 -47.25 613.125 C -43.86044709 613.13689317 -41.99438538 612.59700554 -39 611 C -35.75 610.875 -35.75 610.875 -33 611 C -33 610.34 -33 609.68 -33 609 C -27.72 608.67 -22.44 608.34 -17 608 C -17 607.34 -17 606.68 -17 606 C -18.32 606 -19.64 606 -21 606 C -21 605.01 -21 604.02 -21 603 C -21.33279465 603.62412781 -21.66558929 604.24825562 -22.00846863 604.89129639 C -24.84530011 607.89503355 -27.94360025 608.13481257 -31.86450195 608.73925781 C -33.06502197 608.94495895 -33.06502197 608.94495895 -34.28979492 609.15481567 C -36.93682587 609.60402857 -39.5871559 610.02880286 -42.23828125 610.453125 C -44.08072437 610.75994889 -45.92294117 611.0681347 -47.76493835 611.37762451 C -51.62772418 612.02312782 -55.49210607 612.65753986 -59.3581543 613.28320312 C -64.30701926 614.08421189 -69.25251479 614.90403129 -74.19707966 615.73112869 C -78.91806936 616.52000228 -83.64060641 617.29941472 -88.36328125 618.078125 C -89.26179621 618.22708473 -90.16031116 618.37604446 -91.08605385 618.52951813 C -93.63899162 618.95098885 -96.19292925 619.36572423 -98.74731445 619.77832031 C -99.49714096 619.90294647 -100.24696747 620.02757263 -101.01951599 620.15597534 C -105.04787722 620.79851441 -108.92056747 621.25585106 -113 621 C -114.46875 619.63671875 -114.46875 619.63671875 -115.5 617.6875 C -116.10521484 616.58921875 -116.10521484 616.58921875 -116.72265625 615.46875 C -117.14417969 614.6540625 -117.56570313 613.839375 -118 613 C -118.97885425 611.22899395 -119.95803536 609.45816854 -120.9375 607.6875 C -122.47637319 604.83861169 -124.00766325 601.9857238 -125.5390625 599.1328125 C -126.04179687 598.20210937 -126.54453125 597.27140625 -127.0625 596.3125 C -127.54976563 595.40628906 -128.03703125 594.50007812 -128.5390625 593.56640625 C -129.89228312 591.18922457 -131.37408162 588.99147552 -132.9375 586.75 C -134.71946552 583.91476043 -134.99886982 583.04186386 -135.09375 579.52734375 C -133.73861284 575.1570264 -131.81107724 571.49455607 -129.5 567.5625 C -129.0572876 566.78769287 -128.6145752 566.01288574 -128.15844727 565.21459961 C -127.23917348 563.60664676 -126.31538332 562.00126795 -125.38720703 560.3984375 C -123.61500943 557.33436336 -121.86839505 554.25632191 -120.12890625 551.17358398 C -119.35000344 549.79342567 -118.56759242 548.41523984 -117.78125 547.03930664 C -116.27129708 544.37856771 -114.97036047 541.91108142 -114 539 C -101.23373057 539.47970951 -88.87276002 542.12564803 -76.3671875 544.56152344 C -65.39422251 546.68809601 -54.71990009 548.36892364 -43.54638672 548.81982422 C -39.3546918 549.03278517 -35.52869485 549.64893222 -31.4375 550.5625 C -29.57931641 550.96662109 -29.57931641 550.96662109 -27.68359375 551.37890625 C -26.35521484 551.68634766 -26.35521484 551.68634766 -25 552 C -25 551.01 -25 550.02 -25 549 C -23.35 549 -21.7 549 -20 549 C -19.505 550.485 -19.505 550.485 -19 552 C -17.68 551.67 -16.36 551.34 -15 551 C -15.99 549.515 -15.99 549.515 -17 548 C -17.47355543 545.11521176 -17.84620795 542.28614452 -18.1484375 539.3828125 C -18.24565094 538.51173355 -18.34286438 537.6406546 -18.44302368 536.74317932 C -18.76154386 533.87125717 -19.06833182 530.9982099 -19.375 528.125 C -19.59566112 526.11296098 -19.81702318 524.10099872 -20.0390625 522.08911133 C -20.59828029 517.00441972 -21.1479808 511.91875126 -21.69470215 506.83270264 C -22.13767993 502.72253832 -22.58844412 498.61323845 -23.0390625 494.50390625 C -23.95006282 486.17509449 -24.84304543 477.84440025 -25.73175049 469.51318359 C -26.01324326 466.87592619 -26.29537545 464.23873776 -26.57763672 461.6015625 C -28.95959618 439.34193583 -31.31046144 417.07923852 -33.625 394.8125 C -34.41596308 387.20826004 -35.20742182 379.6040718 -36 372 C -36.07627625 371.26799377 -36.15255249 370.53598755 -36.23114014 369.78179932 C -37.81030585 354.64012153 -39.52209588 339.51926465 -41.32791138 324.40332031 C -42.43082413 315.14763435 -43.42658084 305.89449531 -44.21337891 296.60595703 C -45.03734761 287.10473328 -46.13140011 277.63395149 -47.20211792 268.15814209 C -48.40216932 257.52871968 -49.52796758 246.89703399 -50.5625 236.25 C -51.41226254 227.52150438 -52.36359369 218.82078695 -53.5 210.125 C -54.78125919 200.3075379 -55.7328303 190.47341058 -56.61810303 180.61349487 C -57.73852495 168.19107491 -59.13557026 155.81128765 -60.64233398 143.43017578 C -62.52470651 127.95260853 -62.52470651 127.95260853 -63 121 C -63.13801025 119.5452124 -63.13801025 119.5452124 -63.27880859 118.06103516 C -63.76349534 109.62585664 -61.25921745 104.55085153 -56.75 97.5625 C -55.45197501 95.44992491 -54.15511995 93.33663057 -52.859375 91.22265625 C -52.20646484 90.17609863 -51.55355469 89.12954102 -50.88085938 88.05126953 C -48.13660323 83.59933374 -45.56645366 79.05593569 -43 74.5 C -38.13725493 65.94785474 -33.18728705 57.44837261 -28.21972656 48.95678711 C -23.85827004 41.49300656 -19.55795757 33.9961557 -15.28198242 26.4831543 C -11.58928031 20.00482824 -7.83190592 13.56675999 -4.03222656 7.15063477 C -1.9311223 3.62230116 -1.9311223 3.62230116 0 0 Z" stroke-linecap="round" />
</g>
<g transform="matrix(1 0 0 1 587.75 768.1)"  >
<path style="stroke: rgb(52,180,245); stroke-width: 1; stroke-dasharray: none; stroke-linecap: butt; stroke-dashoffset: 0; stroke-linejoin: miter; stroke-miterlimit: 4; fill: rgb(52,180,245); fill-rule: nonzero; opacity: 1;" vector-effect="non-scaling-stroke"  transform=" translate(-13.56, -115.95)" d="M 0 0 C 65.01 0 130.02 0 197 0 C 199.42553191 6.06382979 199.42553191 6.06382979 199 10 C 198.34 10.66 197.68 11.32 197 12 C 196.3574765 14.06874034 196.3574765 14.06874034 196 16 C 194.68 16 193.36 16 192 16 C 192 17.98 192 19.96 192 22 C 191.34 22 190.68 22 190 22 C 190.20625 23.093125 190.4125 24.18625 190.625 25.3125 C 191 29 191 29 189 32 C 186.29443359 32.34057617 186.29443359 32.34057617 182.8984375 32.29296875 C 181.68671875 32.28330078 180.475 32.27363281 179.2265625 32.26367188 C 177.95554687 32.23853516 176.68453125 32.21339844 175.375 32.1875 C 174.09625 32.17396484 172.8175 32.16042969 171.5 32.14648438 C 168.33291718 32.11103196 165.16666459 32.06161441 162 32 C 162 30.02 162 28.04 162 26 C 160.68 26 159.36 26 158 26 C 158 25.34 158 24.68 158 24 C 156.02 24 154.04 24 152 24 C 152 24.66 152 25.32 152 26 C 151.34 26 150.68 26 150 26 C 150 27.98 150 29.96 150 32 C 149.34 32 148.68 32 148 32 C 148 33.32 148 34.64 148 36 C 144.7 36 141.4 36 138 36 C 138 34.68 138 33.36 138 32 C 137.34 32 136.68 32 136 32 C 136 34.64 136 37.28 136 40 C 135.34 40 134.68 40 134 40 C 134 40.66 134 41.32 134 42 C 131.36 42 128.72 42 126 42 C 126 41.34 126 40.68 126 40 C 124.68 40 123.36 40 122 40 C 122 37.36 122 34.72 122 32 C 120.68 32 119.36 32 118 32 C 118 30.02 118 28.04 118 26 C 115.36 26 112.72 26 110 26 C 110 29.96 110 33.92 110 38 C 107.36 38 104.72 38 102 38 C 102 38.66 102 39.32 102 40 C 101.34 40 100.68 40 100 40 C 100 42.64 100 45.28 100 48 C 99.34 48 98.68 48 98 48 C 98 49.32 98 50.64 98 52 C 97.34 52 96.68 52 96 52 C 96 52.66 96 53.32 96 54 C 95.34 54 94.68 54 94 54 C 94 54.66 94 55.32 94 56 C 93.34 56.33 92.68 56.66 92 57 C 92.66 57.33 93.32 57.66 94 58 C 94 59.32 94 60.64 94 62 C 93.34 62 92.68 62 92 62 C 92 62.66 92 63.32 92 64 C 92.66 64 93.32 64 94 64 C 93.67 66.31 93.34 68.62 93 71 C 93.66 71 94.32 71 95 71 C 95 72.32 95 73.64 95 75 C 95.66 75 96.32 75 97 75 C 97.3403125 76.7015625 97.3403125 76.7015625 97.6875 78.4375 C 98.72958148 82.7590732 100.66706763 86.11517182 103.07421875 89.82421875 C 104.30034632 92.70587721 103.93607136 94.03131656 103 97 C 102.12710818 99.00849865 101.17941798 100.98503856 100.1875 102.9375 C 99.74639893 103.80713379 99.74639893 103.80713379 99.29638672 104.69433594 C 94.75380462 113.55316321 89.90775956 122.25670961 85.10400391 130.97558594 C 84.37925749 132.30455482 83.67696612 133.64606775 83 135 C 82.31679688 134.93941406 81.63359375 134.87882813 80.9296875 134.81640625 C 69.96791743 133.90526168 58.98834906 133.46012879 48 133 C 48 132.34 48 131.68 48 131 C 44.7 131 41.4 131 38 131 C 37.67 132.32 37.34 133.64 37 135 C 34.69 134.67 32.38 134.34 30 134 C 30.66 132.35 31.32 130.7 32 129 C 30.02 129 28.04 129 26 129 C 26 128.34 26 127.68 26 127 C 25.00033203 127.10828125 25.00033203 127.10828125 23.98046875 127.21875 C 17.29489465 127.89198264 10.7169852 128.11693011 4 128 C 3.67 127.34 3.34 126.68 3 126 C 3.99 125.67 4.98 125.34 6 125 C 4.00479767 123.00479767 0.23952834 123.54590636 -2.5 123.375 C -3.55380859 123.29765625 -3.55380859 123.29765625 -4.62890625 123.21875 C -6.41692241 123.10161599 -8.20874268 123.04603699 -10 123 C -11.26181095 124.03792772 -11.26181095 124.03792772 -11.11352539 126.31665039 C -11.10828857 127.31688232 -11.10305176 128.31711426 -11.09765625 129.34765625 C -11.09443359 130.42724609 -11.09121094 131.50683594 -11.08789062 132.61914062 C -11.07951172 133.75544922 -11.07113281 134.89175781 -11.0625 136.0625 C -11.05573242 137.77276367 -11.05573242 137.77276367 -11.04882812 139.51757812 C -11.03699747 142.34510351 -11.0205141 145.1725264 -11 148 C -10.01 148 -9.02 148 -8 148 C -7.67 148.99 -7.34 149.98 -7 151 C -7.66 151 -8.32 151 -9 151 C -9 155.29 -9 159.58 -9 164 C -8.34 164 -7.68 164 -7 164 C -7.02320313 164.56847656 -7.04640625 165.13695312 -7.0703125 165.72265625 C -7.08835937 166.49480469 -7.10640625 167.26695312 -7.125 168.0625 C -7.14820313 168.81660156 -7.17140625 169.57070313 -7.1953125 170.34765625 C -7.0842366 173.13174399 -7.0842366 173.13174399 -6.05322266 176.21411133 C -2.9923736 187.21656527 -1.68097267 200.71894594 -4 212 C -7.58760527 218.06281812 -13.55099067 221.01049058 -19.765625 223.90380859 C -22.7943033 225.3896877 -25.17840898 227.27495487 -27.8125 229.375 C -31.31350529 232.06611882 -31.31350529 232.06611882 -34.29150391 231.77929688 C -37.51006524 230.85324245 -39.64712625 229.44291384 -42.37890625 227.5078125 C -43.38244141 226.80269531 -44.38597656 226.09757813 -45.41992188 225.37109375 C -46.45697266 224.62988281 -47.49402344 223.88867188 -48.5625 223.125 C -49.60341797 222.39152344 -50.64433594 221.65804687 -51.71679688 220.90234375 C -54.4865842 218.94657109 -57.25016887 216.9837238 -60 215 C -60.77005371 214.59354248 -61.54010742 214.18708496 -62.33349609 213.76831055 C -64 212 -64 212 -64.26196289 208.40893555 C -64.16812528 206.92070049 -64.04910497 205.43392153 -63.91015625 203.94921875 C -63.84997818 203.15053879 -63.78980011 202.35185883 -63.72779846 201.52897644 C -63.08626616 193.68620687 -61.96562186 185.91456858 -60.78695679 178.13778687 C -58.56311746 163.34035104 -57.29361076 148.99114937 -58 134 C -63.28 134 -68.56 134 -74 134 C -74 134.66 -74 135.32 -74 136 C -74.66 136 -75.32 136 -76 136 C -76 137.32 -76 138.64 -76 140 C -76.66 140 -77.32 140 -78 140 C -78 139.34 -78 138.68 -78 138 C -79.32 138 -80.64 138 -82 138 C -82 136.68 -82 135.36 -82 134 C -84.64 134 -87.28 134 -90 134 C -90 133.34 -90 132.68 -90 132 C -87.36 132 -84.72 132 -82 132 C -82 131.01 -82 130.02 -82 129 C -83.98 129 -85.96 129 -88 129 C -88 128.34 -88 127.68 -88 127 C -86.7625 127.04125 -85.525 127.0825 -84.25 127.125 C -80.86044709 127.13689317 -78.99438538 126.59700554 -76 125 C -72.75 124.875 -72.75 124.875 -70 125 C -70 124.34 -70 123.68 -70 123 C -62.08 122.505 -62.08 122.505 -54 122 C -54 121.34 -54 120.68 -54 120 C -55.32 120 -56.64 120 -58 120 C -58 119.01 -58 118.02 -58 117 C -58.33279465 117.62412781 -58.66558929 118.24825562 -59.00846863 118.89129639 C -61.84530011 121.89503355 -64.94360025 122.13481257 -68.86450195 122.73925781 C -69.66484863 122.87639191 -70.46519531 123.013526 -71.28979492 123.15481567 C -73.93682587 123.60402857 -76.5871559 124.02880286 -79.23828125 124.453125 C -81.08072437 124.75994889 -82.92294117 125.0681347 -84.76493835 125.37762451 C -88.62772418 126.02312782 -92.49210607 126.65753986 -96.3581543 127.28320312 C -101.30701926 128.08421189 -106.25251479 128.90403129 -111.19707966 129.73112869 C -115.91806936 130.52000228 -120.64060641 131.29941472 -125.36328125 132.078125 C -126.71105369 132.3015646 -126.71105369 132.3015646 -128.08605385 132.52951813 C -130.63899162 132.95098885 -133.19292925 133.36572423 -135.74731445 133.77832031 C -136.49714096 133.90294647 -137.24696747 134.02757263 -138.01951599 134.15597534 C -142.04787722 134.79851441 -145.92056747 135.25585106 -150 135 C -151.46875 133.63671875 -151.46875 133.63671875 -152.5 131.6875 C -152.90347656 130.9553125 -153.30695313 130.223125 -153.72265625 129.46875 C -154.14417969 128.6540625 -154.56570313 127.839375 -155 127 C -155.97885425 125.22899395 -156.95803536 123.45816854 -157.9375 121.6875 C -159.47637319 118.83861169 -161.00766325 115.9857238 -162.5390625 113.1328125 C -163.04179687 112.20210937 -163.54453125 111.27140625 -164.0625 110.3125 C -164.54976563 109.40628906 -165.03703125 108.50007812 -165.5390625 107.56640625 C -166.89228312 105.18922457 -168.37408162 102.99147552 -169.9375 100.75 C -171.71946552 97.91476043 -171.99886982 97.04186386 -172.09375 93.52734375 C -170.73861284 89.1570264 -168.81107724 85.49455607 -166.5 81.5625 C -165.8359314 80.40028931 -165.8359314 80.40028931 -165.15844727 79.21459961 C -164.23917348 77.60664676 -163.31538332 76.00126795 -162.38720703 74.3984375 C -160.61500943 71.33436336 -158.86839505 68.25632191 -157.12890625 65.17358398 C -156.35000344 63.79342567 -155.56759242 62.41523984 -154.78125 61.03930664 C -153.27129708 58.37856771 -151.97036047 55.91108142 -151 53 C -138.23373057 53.47970951 -125.87276002 56.12564803 -113.3671875 58.56152344 C -102.39422251 60.68809601 -91.71990009 62.36892364 -80.54638672 62.81982422 C -76.3546918 63.03278517 -72.52869485 63.64893222 -68.4375 64.5625 C -67.19871094 64.83191406 -65.95992188 65.10132813 -64.68359375 65.37890625 C -63.79800781 65.58386719 -62.91242188 65.78882813 -62 66 C -62 65.01 -62 64.02 -62 63 C -60.35 63 -58.7 63 -57 63 C -56.505 64.485 -56.505 64.485 -56 66 C -54.35 65.34 -52.7 64.68 -51 64 C -45.72 68.29 -40.44 72.58 -35 77 C -31.29830262 75.14915131 -28.71647686 73.25841757 -25.5625 70.625 C -20.00551007 66.00319197 -20.00551007 66.00319197 -17.42456055 64.50805664 C -13.72612977 60.68226072 -13.87523643 56.73820222 -13.453125 51.58203125 C -13.35159119 50.56904465 -13.25005737 49.55605804 -13.14544678 48.51237488 C -12.82560075 45.28073099 -12.53683716 42.0472256 -12.25 38.8125 C -11.942594 35.56795198 -11.62891272 32.3240938 -11.31170654 29.08049011 C -11.11649762 27.06237549 -10.92822471 25.04357622 -10.74737549 23.02412415 C -10.66348572 22.11615585 -10.57959595 21.20818756 -10.49316406 20.27270508 C -10.38587982 19.06835564 -10.38587982 19.06835564 -10.27642822 17.8396759 C -10 16 -10 16 -9 15 C -8.60430892 12.98688551 -8.25747809 10.96402792 -7.9375 8.9375 C -7.76089844 7.83277344 -7.58429688 6.72804688 -7.40234375 5.58984375 C -7.26957031 4.73519531 -7.13679687 3.88054688 -7 3 C -5.35 3.33 -3.7 3.66 -2 4 C -2 3.34 -2 2.68 -2 2 C -1.34 2 -0.68 2 0 2 C 0 1.34 0 0.68 0 0 Z" stroke-linecap="round" />
</g>
<g transform="matrix(1 0 0 1 540 540)"  >
<path style="stroke: none; stroke-width: 1; stroke-dasharray: none; stroke-linecap: butt; stroke-dashoffset: 0; stroke-linejoin: miter; stroke-miterlimit: 4; fill: rgb(7,11,13); fill-rule: nonzero; opacity: 1;" vector-effect="non-scaling-stroke"  transform=" translate(-0.49, -464.28)" d="M 0 0 C 1.27488281 -0.06058594 2.54976562 -0.12117188 3.86328125 -0.18359375 C 10.89179477 0.27003264 17.31827372 3.64922998 23.6875 6.4375 C 24.79431625 6.91701614 24.79431625 6.91701614 25.92349243 7.40621948 C 31.77724255 9.94389541 37.60818668 12.53180266 43.4375 15.125 C 45.32718197 15.96310068 47.21699606 16.80090352 49.10693359 17.63842773 C 53.02265944 19.37398437 56.93782225 21.11080144 60.85253906 22.84863281 C 69.11205961 26.51438856 77.37692645 30.16803879 85.64245605 33.82022095 C 87.42904545 34.60963895 89.21558481 35.39917021 91.0020752 36.18881226 C 104.90164843 42.3323405 118.81278656 48.44916785 132.7300415 54.55252075 C 146.79632965 60.72168782 160.84852774 66.92226398 174.89550781 73.13525391 C 187.98369298 78.92362306 201.08137784 84.68986592 214.1875 90.4375 C 229.93402532 97.34362884 245.66875042 104.27604843 261.39282227 111.2331543 C 263.17724025 112.02263691 264.96166409 112.81210627 266.74609375 113.6015625 C 268.07620232 114.19004723 268.07620232 114.19004723 269.43318176 114.79042053 C 275.13691924 117.31281198 280.84394085 119.827632 286.55322266 122.33744812 C 290.46925842 124.05910997 294.38434107 125.78293343 298.29937744 127.50686646 C 300.15466166 128.32309934 302.01040126 129.13829809 303.86663818 129.95236206 C 337.49173299 144.70036608 337.49173299 144.70036608 343.99609375 158.61328125 C 349.64842338 173.52648995 343.62037967 191.4137089 340.4765625 206.22265625 C 339.91750045 208.90221464 339.36302683 211.58271723 338.80841064 214.26319885 C 337.61824224 220.00383542 336.41751414 225.74217692 335.20941162 231.47906494 C 333.44592015 239.8539587 331.69973687 248.23239105 329.95807385 256.61184835 C 327.32967571 269.25696826 324.69277563 281.90029035 322.04934192 294.54227495 C 318.32245535 312.3674604 314.62747177 330.19907206 310.953125 348.03515625 C 310.68386731 349.34201371 310.41460945 350.64887114 310.14535141 351.95572853 C 309.07827218 357.13538265 308.01140977 362.31508134 306.94492912 367.49485874 C 304.27544157 380.45993493 301.59942317 393.42366046 298.92278671 406.38726234 C 297.58340825 412.87434303 296.24434838 419.36148947 294.90527344 425.84863281 C 294.64021688 427.13267156 294.37516033 428.4167103 294.10207176 429.73965931 C 291.13247941 444.12577992 288.163829 458.51209486 285.1953125 472.8984375 C 285.06099658 473.5493737 284.92668066 474.2003099 284.78829455 474.87097144 C 283.56684078 480.79052111 282.3453961 486.71007266 281.12396145 492.62962627 C 279.23939632 501.76295151 277.35471165 510.89625206 275.4699707 520.02954102 C 270.30798514 545.04422182 265.14653706 570.05901323 259.98650253 595.07409656 C 258.95739455 600.06302981 257.92822614 605.05195059 256.89901733 610.04086304 C 256.75449587 610.74140607 256.60997442 611.44194911 256.46107352 612.16372073 C 255.7370194 615.67343714 255.0129571 619.18315186 254.28888893 622.69286537 C 252.90587426 629.39668787 251.52298119 636.1005354 250.14038086 642.80444336 C 249.75094016 644.6926628 249.75094016 644.6926628 249.35363197 646.61902809 C 248.83732971 649.12240493 248.32107239 651.62579104 247.80486107 654.12918663 C 246.5580756 660.17448147 245.30987306 666.21947701 244.0585022 672.26382446 C 241.81909124 683.08401933 239.58800117 693.9055926 237.39581776 704.73547077 C 236.40139676 709.64307723 235.39997053 714.54924104 234.39767265 719.45524406 C 233.92806163 721.76331769 233.46175532 724.07206661 232.9990406 726.38153267 C 232.36130188 729.56336183 231.71203661 732.74264334 231.06030273 735.92163086 C 230.78786523 737.30455354 230.78786523 737.30455354 230.50992393 738.71541405 C 226.47161081 758.16580459 214.71625827 767.68853864 199.6875 779.4375 C 198.5051866 780.36455562 197.32289381 781.29163751 196.140625 782.21875 C 194.44425044 783.54826197 192.74735814 784.87706126 191.0480957 786.20288086 C 185.61918464 790.45309137 180.3137686 794.84818193 175.00415039 799.24584961 C 170.06215665 803.33001734 165.05524396 807.31641521 159.99609375 811.25390625 C 155.32650995 814.902351 150.75109115 818.65763828 146.1875 822.4375 C 140.52151201 827.13043817 134.80178521 831.73538888 128.99609375 836.25390625 C 124.32650995 839.902351 119.75109115 843.65763828 115.1875 847.4375 C 109.52151201 852.13043817 103.80178521 856.73538888 97.99609375 861.25390625 C 93.32650995 864.902351 88.75109115 868.65763828 84.1875 872.4375 C 78.52151201 877.13043817 72.80178521 881.73538888 66.99609375 886.25390625 C 62.32650788 889.90235262 57.75114328 893.65769832 53.1875 897.4375 C 46.81436843 902.71483471 40.37131045 907.885131 33.83984375 912.96484375 C 30.95215397 915.21470795 28.13422507 917.54288932 25.3125 919.875 C 15.22890503 927.96841175 5.29488546 929.54748424 -7.3125 928.4375 C -15.43612874 926.7324068 -21.15395961 921.72970137 -27.3125 916.4375 C -29.08059563 914.99663401 -30.85150636 913.5592166 -32.625 912.125 C -36.74478111 908.75003807 -40.81769905 905.32438786 -44.875 901.875 C -49.34483828 898.07618962 -53.86931361 894.36528449 -58.46484375 890.71875 C -67.50754833 883.47466293 -76.42481126 876.06968417 -85.25 868.5625 C -89.59389509 864.86758666 -93.99761718 861.26347613 -98.46484375 857.71875 C -107.50754833 850.47466293 -116.42481126 843.06968417 -125.25 835.5625 C -129.59389509 831.86758666 -133.99761718 828.26347613 -138.46484375 824.71875 C -147.50754833 817.47466293 -156.42481126 810.06968417 -165.25 802.5625 C -169.59389509 798.86758666 -173.99761718 795.26347613 -178.46484375 791.71875 C -184.43699281 786.93447695 -190.32824993 782.05089936 -196.22021484 777.16845703 C -198.15949063 775.56408535 -200.10472536 773.96722627 -202.05078125 772.37109375 C -217.29835855 759.78732754 -222.2838205 749.07600762 -226.29785156 729.96191406 C -226.67985999 728.17923024 -227.06274507 726.3967341 -227.44643021 724.6144104 C -228.49055735 719.75211374 -229.52241874 714.88728531 -230.55222893 710.02193928 C -231.6549002 704.82311646 -232.7690759 699.62675948 -233.88195801 694.43011475 C -235.79035851 685.51138586 -237.6917374 676.59118444 -239.58825684 667.66992188 C -242.32798443 654.78256523 -245.07894659 641.89762726 -247.83312654 629.01335239 C -251.87505014 610.10464194 -255.91165652 591.19480363 -259.94378996 572.28400326 C -265.0167723 548.4926051 -270.10738349 524.70505534 -275.21875 500.921875 C -275.38706502 500.1386619 -275.55538005 499.3554488 -275.72879553 498.54850197 C -277.37677293 490.88023391 -279.02530556 483.21208532 -280.67433774 475.54404402 C -282.74282432 465.92550438 -284.80960142 456.30659833 -286.87548828 446.6875 C -287.03221111 445.95777764 -287.18893393 445.22805529 -287.35040593 444.47622013 C -287.98249482 441.53310251 -288.61457293 438.58998257 -289.2466327 435.64685869 C -290.34409353 430.53664413 -291.44167641 425.4264558 -292.53933716 420.31628418 C -296.78133875 400.56751798 -301.02238109 380.81854591 -305.2630024 361.06948328 C -306.53252106 355.15719579 -307.80207586 349.24491605 -309.07165527 343.3326416 C -309.33938531 342.08585483 -309.33938531 342.08585483 -309.61252403 340.81388044 C -310.32963161 337.47439975 -311.04674041 334.13491932 -311.76385307 330.79543972 C -313.80942515 321.2695324 -315.854973 311.74361989 -317.9001379 302.21762514 C -318.6940014 298.52003425 -319.48801973 294.82247675 -320.28237915 291.12499237 C -321.66644479 284.68216071 -323.04981089 278.23918667 -324.42796421 271.79508734 C -325.17548325 268.30007403 -325.92390425 264.80525438 -326.67285156 261.31054688 C -326.82014961 260.62318986 -326.96744766 259.93583284 -327.11920929 259.22764683 C -329.15470069 249.73761707 -331.23009089 240.25701934 -333.33480263 230.78210831 C -334.50130767 225.53066692 -335.65795285 220.27706673 -336.8126148 215.02301002 C -337.59361431 211.47328278 -338.38040779 207.9250648 -339.18170547 204.37985992 C -347.50313905 167.53473542 -347.50313905 167.53473542 -338.5625 151.25 C -332.95995811 144.24682264 -326.52857414 140.14130466 -318.375 136.625 C -317.35833252 136.17253906 -316.34166504 135.72007812 -315.29418945 135.25390625 C -312.31823517 133.93404321 -309.33645206 132.62840575 -306.35192871 131.32806396 C -302.60798978 129.69318598 -298.87112322 128.04222686 -295.1328125 126.39453125 C -288.18748254 123.33614011 -281.23743717 120.28864661 -274.28515625 117.24609375 C -263.49189911 112.52155989 -252.71294214 107.76500051 -241.9375 103 C -240.14103561 102.20580216 -238.3445675 101.41161273 -236.5480957 100.61743164 C -231.13600219 98.22463716 -225.72422114 95.83113651 -220.3125 93.4375 C -213.10445829 90.2493402 -205.89622769 87.06160849 -198.6875 83.875 C -197.79758362 83.48160431 -196.90766724 83.08820862 -195.99078369 82.68289185 C -182.09357901 76.54049051 -168.18481219 70.4247791 -154.2699585 64.32247925 C -141.10758628 58.54974998 -127.95686423 52.75110838 -114.8125 46.9375 C -99.10803218 39.99207646 -83.39432159 33.06813966 -67.66723633 26.17407227 C -65.99039054 25.43897988 -64.31355136 24.70387243 -62.63671875 23.96875 C -61.38913536 23.42183754 -61.38913536 23.42183754 -60.11634827 22.86387634 C -54.63598615 20.46014542 -49.15940221 18.04797282 -43.68493652 15.63084412 C -39.87546554 13.94903756 -36.06499059 12.26951247 -32.25445557 10.59011841 C -30.4319743 9.78613719 -28.60998513 8.98103945 -26.78851318 8.17477417 C -24.27041701 7.06026778 -21.75064069 5.94964659 -19.23046875 4.83984375 C -18.11162041 4.34278931 -18.11162041 4.34278931 -16.97016907 3.83569336 C -11.06579134 1.2430335 -6.45818396 0.21080126 0 0 Z M -30.08984375 23.96240234 C -34.84997145 26.14124262 -39.67514799 28.15736615 -44.5 30.1875 C -51.5337583 33.18994641 -58.4659347 36.35402113 -65.37890625 39.625 C -72.76050773 43.06885052 -80.29853417 46.17269667 -87.79248047 49.36181641 C -91.47312066 50.93291703 -95.14484906 52.5238427 -98.8125 54.125 C -99.9571875 54.62386719 -101.101875 55.12273437 -102.28125 55.63671875 C -105.70407315 57.15052917 -109.09970551 58.72083479 -112.49609375 60.29296875 C -118.93210771 63.27028227 -125.39465237 66.18310492 -131.875 69.0625 C -133.02178223 69.57248535 -134.16856445 70.0824707 -135.35009766 70.60791016 C -145.05778099 74.91058299 -154.80797521 79.10809138 -164.58422852 83.25244141 C -171.25590154 86.08940328 -177.85853654 89.04519195 -184.43212891 92.10253906 C -187.78989697 93.6587584 -191.16726271 95.15241453 -194.5625 96.625 C -195.91812275 97.21448973 -197.2735795 97.80436128 -198.62890625 98.39453125 C -199.73322998 98.875271 -199.73322998 98.875271 -200.85986328 99.36572266 C -203.62678774 100.57484055 -206.38981117 101.79260014 -209.15234375 103.01171875 C -219.26785997 107.47546602 -229.39025461 111.9168443 -239.5625 116.25 C -246.03375852 119.0070638 -252.44282473 121.85796472 -258.8125 124.84375 C -263.44615713 126.95371887 -268.1280039 128.94350183 -272.8125 130.9375 C -292.04125329 138.46108761 -292.04125329 138.46108761 -309.3125 149.4375 C -309.3125 150.0975 -309.3125 150.7575 -309.3125 151.4375 C -309.9725 151.4375 -310.6325 151.4375 -311.3125 151.4375 C -312.29919759 153.32942475 -313.2765602 155.22621978 -314.25 157.125 C -314.79527344 158.18074219 -315.34054687 159.23648438 -315.90234375 160.32421875 C -319.40463176 168.05641692 -318.64502864 175.78916104 -317.0625 183.9375 C -316.83046875 185.1646875 -316.5984375 186.391875 -316.359375 187.65625 C -315.65085154 191.05723937 -314.8184703 194.41936949 -313.95834351 197.7849884 C -311.67343585 206.72801447 -309.74763958 215.71526207 -307.93554688 224.7649231 C -307.07292604 229.0690945 -306.19714039 233.37057849 -305.3203125 237.671875 C -305.14711487 238.52177505 -304.97391724 239.37167511 -304.79547119 240.24732971 C -303.37660845 247.18215 -301.87198422 254.09540517 -300.3125 261 C -297.91778229 271.60447738 -295.66040461 282.23354024 -293.4375 292.875 C -290.77292438 305.62388345 -288.03002512 318.35209551 -285.1875 331.0625 C -275.71813679 373.42845736 -275.71813679 373.42845736 -273.05078125 388.65234375 C -272.20667479 392.98006415 -271.20834422 397.2602966 -270.20678711 401.55395508 C -268.38641822 409.45911695 -266.67211152 417.38816383 -264.9375 425.3125 C -264.53502918 427.14885222 -264.13252242 428.98519657 -263.72998047 430.8215332 C -258.21940842 455.9683867 -252.79794827 481.13323518 -247.4375 506.3125 C -247.10168915 507.88917953 -247.10168915 507.88917953 -246.75909424 509.49771118 C -244.37335053 520.70106206 -241.99409606 531.90505773 -239.6875 543.125 C -237.55334784 553.4908819 -235.23022993 563.81298029 -232.91595459 574.13973999 C -230.28151613 585.90937342 -227.78754352 597.70117715 -225.38983154 609.52111816 C -222.77983849 622.3721086 -219.96776026 635.17314346 -217.06445312 647.9609375 C -215.33310786 655.62036735 -213.74721663 663.2845307 -212.33552551 671.00949097 C -211.48410148 675.63267007 -210.46363055 680.14744078 -209.25 684.6875 C -208.01529982 689.35746395 -207.05016133 693.9539138 -206.4375 698.75 C -204.16890379 712.95756443 -193.87088872 722.21781882 -182.83984375 730.4765625 C -179.6686899 732.93702499 -176.65449552 735.55601006 -173.625 738.1875 C -168.95012943 742.23728658 -164.20253852 746.15046736 -159.3125 749.9375 C -153.85441315 754.16721136 -148.58242283 758.57193449 -143.36035156 763.08886719 C -136.52308158 769.00061839 -129.5150471 774.69142562 -122.4375 780.3125 C -117.94714103 783.89197791 -113.56520211 787.58766521 -109.19091797 791.30688477 C -104.96439081 794.89690162 -100.6907448 798.4240755 -96.390625 801.92578125 C -91.77351438 805.69329665 -87.17825619 809.48725173 -82.58007812 813.27783203 C -78.58321685 816.57140973 -74.57845332 819.85469883 -70.5625 823.125 C -66.01854322 826.83463391 -61.54545582 830.62272022 -57.07714844 834.42260742 C -53.07852748 837.8135948 -49.00543774 841.09737158 -44.89453125 844.3515625 C -42.44464828 846.33074178 -40.04084053 848.35708335 -37.64746094 850.40405273 C -18.97441901 867.18381519 -18.97441901 867.18381519 4.890625 871.80859375 C 18.01180697 870.5261737 28.06066634 859.92172679 37.69702148 851.66137695 C 42.11794236 847.88126402 46.65629917 844.27621172 51.24560547 840.70361328 C 55.77409406 837.17231458 60.23961967 833.56967724 64.6875 829.9375 C 69.72991019 825.82071449 74.80473196 821.75355907 79.9375 817.75 C 85.26687176 813.59165612 90.46853165 809.30178516 95.64453125 804.953125 C 98.84572275 802.30669711 102.09842638 799.73928665 105.375 797.1875 C 110.80089279 792.95983788 116.13607442 788.6326596 121.4375 784.25 C 128.53966357 778.37893049 135.67435153 772.56014832 142.9453125 766.8984375 C 148.78446286 762.34586583 154.56143363 757.75211449 160.1875 752.9375 C 165.10514113 748.72993644 170.12855027 744.69012185 175.23291016 740.71191406 C 182.47260064 735.06210853 189.59642539 729.27231383 196.6875 723.4375 C 197.56148437 722.72207031 198.43546875 722.00664063 199.3359375 721.26953125 C 200.02945313 720.68558594 200.72296875 720.10164062 201.4375 719.5 C 201.98921875 719.03722656 202.5409375 718.57445312 203.109375 718.09765625 C 212.11774046 708.62103417 213.37406789 693.89763366 215.75 681.5625 C 216.01032619 680.23574215 216.27115463 678.90908277 216.5324707 677.58251953 C 218.06983287 669.75203845 219.5640152 661.91359742 220.94921875 654.0546875 C 221.54374011 651.1418474 222.2292349 648.30830875 222.9765625 645.43359375 C 225.47227401 635.57892855 227.36474197 625.58725397 229.375 615.625 C 229.81976261 613.43149723 230.26483498 611.23805724 230.71020508 609.04467773 C 231.60982381 604.61363336 232.50839264 600.18237816 233.40625 595.75097656 C 235.21488556 586.83105342 237.04369422 577.91529133 238.875 569 C 239.20053614 567.4142284 239.52605707 565.82845368 239.8515625 564.24267578 C 240.796314 559.64083519 241.74184601 555.0391552 242.6875 550.4375 C 242.84283203 549.68146484 242.99816406 548.92542969 243.15820312 548.14648438 C 244.22978714 542.9308493 245.30203397 537.71535095 246.375 532.5 C 246.52142944 531.78814545 246.66785889 531.07629089 246.81872559 530.34286499 C 248.38040359 522.75301854 249.951436 515.16528734 251.54370117 507.58178711 C 253.24826397 499.46131008 254.91345609 491.33427535 256.52734375 483.1953125 C 256.69123093 482.36913422 256.8551181 481.54295593 257.02397156 480.69174194 C 257.19080948 479.85067902 257.3576474 479.00961609 257.52954102 478.14306641 C 260.29338469 464.21208642 263.10411312 450.30169414 266.1875 436.4375 C 268.95976257 423.96271121 271.51724079 411.45420197 273.99862671 398.91848755 C 276.74484236 385.05173623 279.59700742 371.20973117 282.5 357.375 C 286.24976905 339.49938864 289.8746343 321.60126582 293.4375 303.6875 C 296.81887657 286.69284187 300.25633126 269.72015756 303.95751953 252.79199219 C 305.29422301 246.64941501 306.60544946 240.5014145 307.91369629 234.35272217 C 308.35448981 232.2837687 308.79774614 230.21535488 309.24121094 228.14697266 C 310.79837436 220.85034915 312.24755429 213.5415567 313.59899902 206.20462036 C 314.35788455 202.11247321 315.18195805 198.04162446 316.07421875 193.9765625 C 316.3980957 192.49736328 316.3980957 192.49736328 316.72851562 190.98828125 C 317.16499061 189.01293526 317.60785798 187.03899245 318.05664062 185.06640625 C 320.54355882 173.59181104 320.55082442 164.89014255 314.6875 154.4375 C 306.84541343 143.02005406 290.66263892 138.26160468 278.3347168 133.2265625 C 274.05219866 131.47435136 269.91607103 129.57577213 265.79541016 127.47314453 C 261.73206158 125.47676688 257.5448919 123.75959114 253.375 122 C 247.02068854 119.29858132 240.68875934 116.57083102 234.41796875 113.6796875 C 230.22788197 111.77346776 226.00495245 109.94286758 221.78198242 108.11083984 C 217.99738 106.46443362 214.23566532 104.77578004 210.484375 103.0546875 C 203.29614847 99.77762903 196.00306075 96.75566332 188.7109375 93.71875 C 182.20260989 90.98743745 175.7856202 88.11275975 169.40205383 85.10552979 C 162.53305948 81.87700733 155.58436471 78.84000439 148.625 75.8125 C 147.24220438 75.20905077 145.85947468 74.60545049 144.47680664 74.00170898 C 137.48037515 70.94887719 130.47733031 67.91154852 123.46875 64.88671875 C 120.85408848 63.7579935 118.23949483 62.62911132 115.625 61.5 C 114.66797684 61.08678497 114.66797684 61.08678497 113.69161987 60.66522217 C 106.02475001 57.35226657 98.42605511 53.9515652 90.8828125 50.3671875 C 84.66840856 47.46842498 78.35595042 44.78408065 72.0625 42.0625 C 71.08021927 41.63768341 71.08021927 41.63768341 70.07809448 41.20428467 C 63.5938367 38.40193004 57.10459846 35.61147341 50.60546875 32.84375 C 42.89426008 29.55961294 35.20654945 26.26257925 27.625 22.6875 C 26.43648437 22.13449219 25.24796875 21.58148438 24.0234375 21.01171875 C 21.88845927 20.00422902 19.76682145 18.96764467 17.6640625 17.89453125 C 0.04116747 9.46105467 -13.58030822 16.327949 -30.08984375 23.96240234 Z" stroke-linecap="round" />
</g>
<g transform="matrix(1 0 0 1 613.75 746.2)"  >
<path style="stroke: none; stroke-width: 1; stroke-dasharray: none; stroke-linecap: butt; stroke-dashoffset: 0; stroke-linejoin: miter; stroke-miterlimit: 4; fill: rgb(7,12,14); fill-rule: nonzero; opacity: 1;" vector-effect="non-scaling-stroke"  transform=" translate(43.44, -40.06)" d="M 0 0 C 1.46630859 1.63549805 1.46630859 1.63549805 2.6484375 3.76171875 C 3.09316406 4.54466309 3.53789063 5.32760742 3.99609375 6.13427734 C 4.45113281 6.97684082 4.90617188 7.8194043 5.375 8.6875 C 6.09236328 9.97068115 6.09236328 9.97068115 6.82421875 11.27978516 C 10.25392656 17.4678193 13.49123648 23.74431569 16.5625 30.1171875 C 17.92910915 33.01999588 17.92910915 33.01999588 19.75 35.5703125 C 21 38 21 38 20.86328125 40.44140625 C 19.8559363 43.42697613 18.61581773 46.12604247 17.1875 48.9375 C 16.74639893 49.80713379 16.74639893 49.80713379 16.29638672 50.69433594 C 11.75380462 59.55316321 6.90775956 68.25670961 2.10400391 76.97558594 C 1.37925749 78.30455482 0.67696612 79.64606775 0 81 C -11.43353618 80.55337749 -22.57136528 78.50145629 -33.82275391 76.54833984 C -38.8780192 75.67588511 -43.9391823 74.83951943 -49 74 C -50.97656642 73.66929425 -52.9531289 73.33856497 -54.9296875 73.0078125 C -59.16197731 72.30173999 -63.39656439 71.61159597 -67.6328125 70.9296875 C -68.71949219 70.75308594 -69.80617188 70.57648438 -70.92578125 70.39453125 C -73.00325514 70.0571637 -75.08135299 69.72360821 -77.16015625 69.39453125 C -90.35912237 67.23996751 -90.35912237 67.23996751 -93.52734375 62.875 C -94.34759712 61.5939788 -95.15035218 60.3016256 -95.9375 59 C -96.79397302 57.63701418 -97.65205329 56.27503703 -98.51171875 54.9140625 C -99.13699463 53.91294434 -99.13699463 53.91294434 -99.77490234 52.89160156 C -101.9771298 49.49127108 -104.49997445 46.32082868 -107.015625 43.1484375 C -108 41 -108 41 -107.3984375 38.546875 C -105.31461624 34.75175919 -102.79221177 31.41877336 -100.16015625 27.98828125 C -97.9508541 25.08604975 -97.9508541 25.08604975 -96.43359375 21.98046875 C -94.28404602 18.11128284 -92.30260188 14.9248391 -88.04638672 13.21533203 C -82.8530228 11.78185934 -77.53555499 11.12707666 -72.20117188 10.44335938 C -66.26691238 9.62146987 -60.38984903 8.46451995 -54.5 7.375 C -46.73897299 5.97215446 -38.97203424 4.67797675 -31.17382812 3.5 C -28.0642873 3.01012772 -24.97062406 2.46535554 -21.875 1.89453125 C -20.90175781 1.71599609 -19.92851563 1.53746094 -18.92578125 1.35351562 C -16.94293999 0.98686207 -14.96118766 0.61427902 -12.98046875 0.23632812 C -12.01753906 0.06166016 -11.05460938 -0.11300781 -10.0625 -0.29296875 C -8.78052734 -0.53309692 -8.78052734 -0.53309692 -7.47265625 -0.77807617 C -4.67110064 -1.02951911 -2.67423433 -0.88714986 0 0 Z" stroke-linecap="round" />
</g>
<g transform="matrix(1 0 0 1 466.66 746.18)"  >
<path style="stroke: none; stroke-width: 1; stroke-dasharray: none; stroke-linecap: butt; stroke-dashoffset: 0; stroke-linejoin: miter; stroke-miterlimit: 4; fill: rgb(7,11,13); fill-rule: nonzero; opacity: 1;" vector-effect="non-scaling-stroke"  transform=" translate(-43.45, -41.03)" d="M 0 0 C 12.49400856 0.41849602 24.62769492 2.98829551 36.875 5.3125 C 40.03243936 5.90579697 43.19024511 6.49709931 46.34820557 7.08761597 C 48.43873405 7.47870482 50.5290274 7.87105266 52.61907959 8.26467896 C 57.90145266 9.25515618 63.18704684 10.21306203 68.48535156 11.11474609 C 69.52885773 11.29241013 70.57236389 11.47007416 71.64749146 11.65312195 C 73.6219098 11.98664644 75.59703488 12.3160245 77.57296753 12.64045715 C 89.65635721 14.6775412 89.65635721 14.6775412 92.70336914 17.67651367 C 93.14285889 18.33369385 93.58234863 18.99087402 94.03515625 19.66796875 C 94.53466797 20.39693359 95.03417969 21.12589844 95.54882812 21.87695312 C 96.04833984 22.63943359 96.54785156 23.40191406 97.0625 24.1875 C 98.07416147 25.68102839 99.08587962 27.17451838 100.09765625 28.66796875 C 100.57992676 29.39161621 101.06219727 30.11526367 101.55908203 30.86083984 C 103.64265784 33.95407795 105.81721916 36.97614765 108 40 C 106.02570257 44.12981057 103.62095452 47.90965313 101.08857727 51.71809387 C 98.9664081 54.94297569 98.9664081 54.94297569 97.30851746 58.28349304 C 94.38080808 63.46620679 91.85179124 67.65817641 86.03018188 69.68179321 C 81.14637432 70.98073349 76.17602354 71.65261708 71.17578125 72.33203125 C 69.34137524 72.6225609 67.50773298 72.91795034 65.67485046 73.21794128 C 60.87527023 73.98964553 56.06806634 74.69289546 51.25610352 75.38250732 C 46.36114516 76.097548 41.47736001 76.88203018 36.59179688 77.65820312 C 29.45198337 78.77965466 22.3097374 79.88178937 15.1574707 80.92114258 C 14.41707047 81.03162933 13.67667023 81.14211609 12.91383362 81.25595093 C 8.91491626 81.82678108 5.03915227 82.23877668 1 82 C -0.46875 80.63671875 -0.46875 80.63671875 -1.5 78.6875 C -1.90347656 77.9553125 -2.30695313 77.223125 -2.72265625 76.46875 C -3.14417969 75.6540625 -3.56570313 74.839375 -4 74 C -4.97885425 72.22899395 -5.95803536 70.45816854 -6.9375 68.6875 C -8.47637319 65.83861169 -10.00766325 62.9857238 -11.5390625 60.1328125 C -12.04179687 59.20210937 -12.54453125 58.27140625 -13.0625 57.3125 C -13.54976563 56.40628906 -14.03703125 55.50007812 -14.5390625 54.56640625 C -15.89228312 52.18922457 -17.37408162 49.99147552 -18.9375 47.75 C -20.71946552 44.91476043 -20.99886982 44.04186386 -21.09375 40.52734375 C -19.73861284 36.1570264 -17.81107724 32.49455607 -15.5 28.5625 C -15.0572876 27.78769287 -14.6145752 27.01288574 -14.15844727 26.21459961 C -13.23917348 24.60664676 -12.31538332 23.00126795 -11.38720703 21.3984375 C -9.61500943 18.33436336 -7.86839505 15.25632191 -6.12890625 12.17358398 C -5.35000344 10.79342567 -4.56759242 9.41523984 -3.78125 8.03930664 C -2.27129708 5.37856771 -0.97036047 2.91108142 0 0 Z" stroke-linecap="round" />
</g>
<g transform="matrix(1 0 0 1 540.38 823.57)"  >
<path style="stroke: none; stroke-width: 1; stroke-dasharray: none; stroke-linecap: butt; stroke-dashoffset: 0; stroke-linejoin: miter; stroke-miterlimit: 4; fill: rgb(7,12,14); fill-rule: nonzero; opacity: 1;" vector-effect="non-scaling-stroke"  transform=" translate(-2.17, -60.42)" d="M 0 0 C 4.25497564 0.27123351 6.64538063 3.07745873 9.60693359 5.86645508 C 11.95687384 8.03296398 11.95687384 8.03296398 14.53125 9.83862305 C 19.93480615 13.97521211 22.59616659 17.08367614 23.7109375 23.89453125 C 23.97671895 26.53994489 24.19511734 29.16255385 24.375 31.8125 C 24.50525681 33.22751968 24.64059352 34.64208007 24.78076172 36.05615234 C 25.06560529 38.94950526 25.33224276 41.84367857 25.58789062 44.73974609 C 26.18695186 51.23565515 27.16072913 57.67428421 28.125 64.125 C 28.5930334 67.34124773 29.05945829 70.55772003 29.52441406 73.77441406 C 29.85824455 76.03856621 30.20509211 78.30081903 30.56152344 80.56152344 C 31.09516208 84.03627066 31.56470236 87.5116877 32 91 C 32.13857422 91.94738037 32.27714844 92.89476074 32.41992188 93.87084961 C 32.74670204 97.56912125 32.87826128 99.92579309 30.46582031 102.87646484 C 28.27764481 104.68709936 26.03799345 106.19027116 23.625 107.6875 C 22.80169189 108.23422363 21.97838379 108.78094727 21.13012695 109.34423828 C 19.50108482 110.42512997 17.86392959 111.49391015 16.21826172 112.54931641 C 14.33675476 113.77977143 12.53767538 115.05198788 10.75390625 116.41796875 C 9.90699219 117.06378906 9.06007813 117.70960938 8.1875 118.375 C 7.47980469 118.91898438 6.77210938 119.46296875 6.04296875 120.0234375 C 3.24566215 121.36058215 1.96178004 120.85217252 -1 120 C -3.61547852 118.46533203 -3.61547852 118.46533203 -6.37890625 116.5078125 C -7.38244141 115.80269531 -8.38597656 115.09757813 -9.41992188 114.37109375 C -10.45697266 113.62988281 -11.49402344 112.88867188 -12.5625 112.125 C -14.12387695 111.02478516 -14.12387695 111.02478516 -15.71679688 109.90234375 C -18.4865842 107.94657109 -21.25016887 105.9837238 -24 104 C -24.77037598 103.59410645 -25.54075195 103.18821289 -26.33447266 102.77001953 C -28 101 -28 101 -28.25317383 97.39355469 C -28.15671428 95.90132281 -28.03545955 94.41056557 -27.89453125 92.921875 C -27.83352737 92.12174988 -27.7725235 91.32162476 -27.70967102 90.49725342 C -26.95419588 81.24014584 -25.67650898 72.05276622 -24.34075928 62.86499023 C -23.98640142 60.42596896 -23.63477268 57.98658036 -23.28515625 55.546875 C -23.16964417 54.74419189 -23.05413208 53.94150879 -22.93511963 53.11450195 C -22.20295945 47.87944393 -21.69066873 42.66171836 -21.30859375 37.390625 C -19.63660821 16.1904776 -19.63660821 16.1904776 -12.51123047 9.46875 C -9.99744274 7.46103444 -7.44272825 5.66281314 -4.65405273 4.05786133 C -2.90736524 3.0295395 -2.90736524 3.0295395 -1.40795898 1.36206055 C -0.94333252 0.91258057 -0.47870605 0.46310059 0 0 Z" stroke-linecap="round" />
</g>
</svg>