<?xml version="1.0" encoding="UTF-8" standalone="no" ?>
<!DOCTYPE svg PUBLIC "-//W3C//DTD SVG 1.1//EN" "http://www.w3.org/Graphics/SVG/1.1/DTD/svg11.dtd">
<svg xmlns="http://www.w3.org/2000/svg" xmlns:xlink="http://www.w3.org/1999/xlink" version="1.1" width="1080" height="1080" viewBox="0 0 1080 1080" xml:space="preserve">
<desc>Created with Fabric.js 5.2.4</desc>
<defs>
</defs>
<rect x="0" y="0" width="100%" height="100%" fill="transparent"></rect>
<g transform="matrix(1 0 0 1 540 540)" id="4adb0df8-3c58-4228-b24f-d1484b6b9c7b"  >
</g>
<g transform="matrix(1 0 0 1 540 540)" id="5f30e9dd-772c-4f20-84b8-fc8888a4beb3"  >
<rect style="stroke: none; stroke-width: 1; stroke-dasharray: none; stroke-linecap: butt; stroke-dashoffset: 0; stroke-linejoin: miter; stroke-miterlimit: 4; fill: rgb(255,255,255); fill-rule: nonzero; opacity: 1; visibility: hidden;" vector-effect="non-scaling-stroke"  x="-540" y="-540" rx="0" ry="0" width="1080" height="1080" />
</g>
<g transform="matrix(72.42 0 0 72.42 540 540)"  >
<path style="stroke: rgb(255,255,255); stroke-width: 30; stroke-dasharray: none; stroke-linecap: butt; stroke-dashoffset: 0; stroke-linejoin: miter; stroke-miterlimit: 4; fill: rgb(164,30,34); fill-rule: nonzero; opacity: 1;" vector-effect="non-scaling-stroke"  transform=" translate(-12, -12.01)" d="M 6 11.9999 L 6 9.32992 C 6 6.01992 8.35 4.65992 11.22 6.31992 L 13.53 7.65992 L 15.84 8.99992 C 18.71 10.6599 18.71 13.3699 15.84 15.0299 L 13.53 16.3699 L 11.22 17.7099 C 8.35 19.3399 6 17.9899 6 14.6699 L 6 11.9999 Z" stroke-linecap="round" />
</g>
</svg>