<?xml version="1.0" encoding="UTF-8" standalone="no" ?>
<!DOCTYPE svg PUBLIC "-//W3C//DTD SVG 1.1//EN" "http://www.w3.org/Graphics/SVG/1.1/DTD/svg11.dtd">
<svg xmlns="http://www.w3.org/2000/svg" xmlns:xlink="http://www.w3.org/1999/xlink" version="1.1" width="1080" height="1080" viewBox="0 0 1080 1080" xml:space="preserve">
<desc>Created with Fabric.js 5.2.4</desc>
<defs>
</defs>
<g transform="matrix(1 0 0 1 540 540)" id="bf9b90b8-fe8b-4e21-a55c-48cb01dd5d45"  >
<rect style="stroke: none; stroke-width: 1; stroke-dasharray: none; stroke-linecap: butt; stroke-dashoffset: 0; stroke-linejoin: miter; stroke-miterlimit: 4; fill: rgb(255,255,255); fill-rule: nonzero; opacity: 1; visibility: hidden;" vector-effect="non-scaling-stroke"  x="-540" y="-540" rx="0" ry="0" width="1080" height="1080" />
</g>
<g transform="matrix(1 0 0 1 540 540)" id="8a4e57a6-f6ff-4b1b-aa83-8c18db2dbecd"  >
</g>
<g transform="matrix(1 0 0 1 559.03 532.5)"  >
<path style="stroke: rgb(255,255,255); stroke-width: 5; stroke-dasharray: none; stroke-linecap: round; stroke-dashoffset: 0; stroke-linejoin: round; stroke-miterlimit: 4; fill: rgb(164,30,34); fill-rule: nonzero; opacity: 1;" vector-effect="non-scaling-stroke"  transform=" translate(-380.81, -285.24)" d="M 259.18 83.63 C 264.2 83.22 269.28000000000003 82.91 274.37 82.66 C 264.6 55.11 254.74 27.61 244.72 0.20999999999999375 C 205.43 -0.5000000000000062 162.57999999999998 0.9199999999999937 123.28 0.20999999999999375 L 155.86 101.94 C 160.98000000000002 100.53999999999999 166.17000000000002 99.2 171.44000000000003 97.92 C 200.45000000000002 90.89 230.78000000000003 85.95 259.18 83.63 M 385.58000000000004 397.38 C 369.22 352.64 353.28000000000003 307.65 337.46000000000004 262.58 C 330.18000000000006 263.03 322.99 263.65 315.94000000000005 264.46 C 314.36000000000007 264.64 276.76000000000005 269.06 239.94000000000005 285.25 C 231.90000000000006 288.78 224.65000000000006 292.53 218.17000000000004 296.49 C 247.42000000000004 387.82 276.68000000000006 479.15 305.93000000000006 570.48 L 455.6700000000001 570.48 C 485.62000000000006 476.96000000000004 515.58 383.43 545.5300000000001 289.91 C 509.93000000000006 279.53000000000003 469.99000000000007 270.29 427.9100000000001 265.39000000000004 C 413.80000000000007 309.39000000000004 399.69000000000005 353.38000000000005 385.57000000000005 397.38000000000005 Z M 638.33 0.2 L 512.98 0.2 C 501 37.54 489.03 74.88 477.05 112.22 C 519.51 126.28999999999999 556.89 143.47 587.27 159.64 C 604.29 106.49 621.31 53.35 638.34 0.2 Z" stroke-linecap="round" />
</g>
<g transform="matrix(1 0 0 1 532.5 548.25)"  >
<path style="stroke: rgb(255,255,255); stroke-width: 5; stroke-dasharray: none; stroke-linecap: round; stroke-dashoffset: 0; stroke-linejoin: round; stroke-miterlimit: 4; fill: rgb(164,30,34); fill-rule: nonzero; opacity: 1;" vector-effect="non-scaling-stroke"  transform=" translate(-354.28, -301)" d="M 708.47 301.38 C 708.47 301.29 708.47 301.2 708.45 301.11 C 708.45 301.04 708.4200000000001 300.96000000000004 708.4100000000001 300.89 C 708.3900000000001 300.78999999999996 708.3800000000001 300.7 708.3500000000001 300.59999999999997 C 708.3300000000002 300.52 708.3000000000002 300.42999999999995 708.2800000000001 300.34999999999997 C 708.2500000000001 300.24999999999994 708.2200000000001 300.14 708.1800000000001 300.03999999999996 C 708.1500000000001 299.95 708.11 299.84999999999997 708.07 299.76 C 708.0300000000001 299.65 707.98 299.53999999999996 707.9300000000001 299.42 C 707.8900000000001 299.32 707.84 299.21000000000004 707.7900000000001 299.11 C 707.7300000000001 298.99 707.6800000000001 298.87 707.6100000000001 298.74 C 707.5500000000002 298.63 707.4900000000001 298.51 707.4300000000002 298.40000000000003 C 707.3600000000001 298.27000000000004 707.2900000000002 298.15000000000003 707.2200000000001 298.01000000000005 C 707.1500000000001 297.89000000000004 707.0800000000002 297.77000000000004 707.0000000000001 297.64000000000004 C 706.9200000000001 297.51000000000005 706.8400000000001 297.37000000000006 706.7500000000001 297.23 C 706.6700000000001 297.1 706.5800000000002 296.97 706.5000000000001 296.83000000000004 C 706.4100000000001 296.69000000000005 706.3100000000001 296.54 706.2100000000002 296.40000000000003 C 706.1200000000001 296.26000000000005 706.0200000000001 296.12000000000006 705.9200000000002 295.97 C 705.8200000000003 295.82 705.7100000000002 295.67 705.6000000000001 295.52000000000004 C 705.4900000000001 295.37000000000006 705.3900000000001 295.22 705.2700000000001 295.07000000000005 C 705.1600000000001 294.91 705.0400000000001 294.76000000000005 704.9200000000001 294.6 L 704.5600000000001 294.12 C 704.44 293.96 704.3100000000001 293.8 704.1800000000001 293.63 C 704.0500000000001 293.46 703.9100000000001 293.29 703.7800000000001 293.12 C 703.6500000000001 292.95 703.5100000000001 292.78000000000003 703.3700000000001 292.61 C 703.2200000000001 292.43 703.0800000000002 292.25 702.9300000000001 292.07 C 702.7900000000001 291.9 702.6400000000001 291.71999999999997 702.49 291.55 C 702.33 291.36 702.17 291.17 702 290.98 C 701.85 290.81 701.7 290.63 701.55 290.46000000000004 C 701.37 290.25000000000006 701.1899999999999 290.05 701.01 289.84000000000003 C 700.87 289.68 700.72 289.52000000000004 700.58 289.36 C 700.37 289.13 700.1600000000001 288.90000000000003 699.95 288.66 C 699.84 288.53000000000003 699.71 288.40000000000003 699.6 288.28000000000003 C 698.63 287.22 697.59 286.12 696.47 284.97 L 696.45 284.95000000000005 C 696.12 284.61000000000007 695.7800000000001 284.27000000000004 695.44 283.9200000000001 L 695.1400000000001 283.62000000000006 L 694.1700000000001 282.65000000000003 L 693.7600000000001 282.24 C 693.44 281.93 693.1100000000001 281.61 692.7800000000001 281.28000000000003 C 692.6300000000001 281.13000000000005 692.4700000000001 280.98 692.32 280.83000000000004 C 691.99 280.51000000000005 691.6500000000001 280.18000000000006 691.3100000000001 279.86 C 691.1500000000001 279.7 690.99 279.55 690.82 279.39 L 689.7700000000001 278.4 L 689.2600000000001 277.91999999999996 C 688.9000000000001 277.58 688.5300000000001 277.23999999999995 688.1600000000001 276.9 C 687.9900000000001 276.73999999999995 687.8100000000001 276.58 687.6400000000001 276.41999999999996 C 687.2600000000001 276.06999999999994 686.8800000000001 275.71999999999997 686.4900000000001 275.36999999999995 C 686.3100000000002 275.2099999999999 686.1300000000001 275.04999999999995 685.9500000000002 274.87999999999994 Q 685.3650000000001 274.3399999999999 684.7500000000001 273.79999999999995 C 684.5700000000002 273.63999999999993 684.3900000000001 273.46999999999997 684.2000000000002 273.30999999999995 C 683.7900000000002 272.93999999999994 683.3700000000001 272.56999999999994 682.9400000000002 272.18999999999994 C 682.7600000000002 272.0299999999999 682.5800000000002 271.87999999999994 682.4100000000002 271.7199999999999 C 681.9700000000001 271.3299999999999 681.5300000000002 270.94999999999993 681.0800000000002 270.5599999999999 L 680.5700000000002 270.1099999999999 C 680.1000000000001 269.7099999999999 679.6300000000001 269.2999999999999 679.1600000000002 268.8899999999999 C 679.0000000000002 268.7499999999999 678.8400000000001 268.6099999999999 678.6800000000002 268.47999999999985 C 678.1800000000002 268.05999999999983 677.6800000000002 267.6299999999998 677.1800000000002 267.1999999999999 L 676.7600000000002 266.83999999999986 C 676.2200000000003 266.3899999999999 675.6800000000002 265.92999999999984 675.1300000000002 265.46999999999986 L 674.7900000000002 265.1899999999999 C 674.2100000000002 264.70999999999987 673.6300000000002 264.21999999999986 673.0300000000002 263.7299999999999 C 672.9600000000002 263.6699999999999 672.8800000000002 263.6099999999999 672.8000000000002 263.5399999999999 C 665.9000000000002 257.8599999999999 658.0900000000001 251.7899999999999 649.4400000000002 245.4699999999999 C 649.4200000000002 245.45999999999992 649.4100000000002 245.4499999999999 649.3900000000002 245.42999999999992 Q 648.1450000000002 244.51499999999993 646.8700000000002 243.5999999999999 C 646.8200000000003 243.55999999999992 646.7600000000002 243.5199999999999 646.7100000000003 243.4799999999999 C 645.8800000000002 242.8799999999999 645.0500000000003 242.27999999999992 644.2100000000003 241.6799999999999 C 644.1300000000002 241.6199999999999 644.0500000000003 241.56999999999988 643.9800000000002 241.5099999999999 C 643.1500000000002 240.9199999999999 642.3200000000003 240.3299999999999 641.4800000000002 239.7399999999999 C 641.3900000000002 239.6699999999999 641.2900000000002 239.6099999999999 641.2000000000003 239.5399999999999 C 640.3600000000002 238.9499999999999 639.5200000000003 238.3599999999999 638.6700000000003 237.7599999999999 L 638.3900000000003 237.5699999999999 C 637.5300000000003 236.9699999999999 636.6700000000003 236.36999999999992 635.8000000000003 235.7699999999999 C 635.7100000000003 235.7099999999999 635.6300000000003 235.6499999999999 635.5400000000003 235.5899999999999 Q 634.2200000000003 234.6749999999999 632.8700000000003 233.75999999999988 C 632.8000000000003 233.70999999999987 632.7200000000004 233.65999999999988 632.6500000000003 233.60999999999987 C 631.7300000000004 232.98999999999987 630.8100000000003 232.35999999999987 629.8800000000003 231.72999999999988 C 629.8400000000004 231.69999999999987 629.7900000000003 231.66999999999987 629.7500000000003 231.63999999999987 C 628.7900000000003 230.9999999999999 627.8300000000004 230.34999999999988 626.8500000000004 229.69999999999987 C 626.8300000000004 229.68999999999988 626.8200000000004 229.67999999999986 626.8000000000004 229.66999999999987 C 612.77207588824 220.35307105477284 598.4092074297502 211.55056063629758 583.74 203.27999999999966 L 583.7300000000005 203.27999999999986 C 582.5600000000005 202.61999999999986 581.3900000000004 201.95999999999987 580.2100000000005 201.30999999999986 C 580.1600000000005 201.27999999999986 580.1100000000005 201.24999999999986 580.0600000000005 201.22999999999985 C 578.9100000000005 200.58999999999986 577.7500000000006 199.94999999999985 576.5900000000005 199.30999999999986 C 576.5100000000004 199.26999999999987 576.4300000000005 199.21999999999986 576.3500000000005 199.17999999999986 C 575.2000000000005 198.54999999999987 574.0500000000005 197.91999999999987 572.8900000000004 197.29999999999987 C 572.8000000000004 197.24999999999986 572.7000000000004 197.19999999999987 572.6100000000005 197.14999999999986 C 571.4600000000005 196.52999999999986 570.3000000000005 195.89999999999986 569.1300000000005 195.27999999999986 C 569.0400000000004 195.22999999999985 568.9400000000004 195.17999999999986 568.8500000000005 195.12999999999985 C 567.6800000000005 194.50999999999985 566.5000000000005 193.87999999999985 565.3200000000005 193.25999999999985 C 565.2400000000005 193.21999999999986 565.1600000000005 193.16999999999985 565.0700000000005 193.12999999999985 C 563.8700000000005 192.49999999999986 562.6600000000005 191.86999999999986 561.4500000000005 191.23999999999987 C 561.4000000000005 191.20999999999987 561.3400000000005 191.17999999999986 561.2900000000005 191.15999999999985 C 560.0500000000005 190.51999999999987 558.8000000000005 189.86999999999986 557.5400000000005 189.22999999999985 C 557.5400000000005 189.22999999999985 557.5200000000006 189.22999999999985 557.5200000000006 189.21999999999986 C 542.8171292963285 181.7178549683492 527.850916701097 174.74340644224517 512.6500000000001 168.30999999999966 L 512.6400000000006 168.30999999999986 C 511.3000000000006 167.73999999999987 509.96000000000055 167.17999999999986 508.6100000000006 166.61999999999986 L 508.25000000000057 166.46999999999986 C 506.9700000000006 165.93999999999986 505.69000000000057 165.41999999999985 504.4100000000006 164.88999999999984 C 504.2200000000006 164.80999999999983 504.0300000000006 164.72999999999985 503.8400000000006 164.65999999999985 C 502.6000000000006 164.15999999999985 501.3500000000006 163.65999999999985 500.1000000000006 163.15999999999985 C 499.8700000000006 163.06999999999985 499.6400000000006 162.96999999999986 499.4000000000006 162.87999999999985 C 498.1800000000006 162.39999999999986 496.9500000000006 161.90999999999985 495.7300000000006 161.42999999999986 C 495.4600000000006 161.32999999999987 495.2000000000006 161.21999999999986 494.9300000000006 161.11999999999986 C 493.7200000000006 160.64999999999986 492.51000000000056 160.17999999999986 491.2900000000006 159.71999999999986 C 491.0100000000006 159.60999999999984 490.7200000000006 159.49999999999986 490.44000000000057 159.39999999999986 C 489.2300000000006 158.93999999999986 488.02000000000055 158.47999999999988 486.81000000000057 158.02999999999986 C 486.52000000000055 157.91999999999985 486.2200000000006 157.80999999999986 485.9300000000006 157.69999999999985 C 484.7200000000006 157.24999999999986 483.50000000000057 156.79999999999984 482.2800000000006 156.35999999999984 C 481.9900000000006 156.24999999999983 481.6900000000006 156.14999999999984 481.4000000000006 156.03999999999985 C 480.1700000000006 155.58999999999986 478.9400000000006 155.14999999999986 477.7000000000006 154.70999999999984 L 476.86000000000064 154.40999999999983 C 475.61000000000064 153.96999999999983 474.35000000000065 153.51999999999984 473.09000000000066 153.08999999999983 L 472.3100000000007 152.81999999999982 C 471.02000000000066 152.36999999999983 469.7300000000007 151.92999999999984 468.4400000000007 151.4899999999998 C 468.2400000000007 151.41999999999982 468.03000000000065 151.34999999999982 467.83000000000067 151.2799999999998 C 466.48000000000064 150.8199999999998 465.1200000000007 150.3699999999998 463.77000000000066 149.9199999999998 C 463.65000000000066 149.8799999999998 463.53000000000065 149.83999999999978 463.40000000000066 149.79999999999978 C 452.72679612863055 146.27840437916595 441.95579306239756 143.0604421627837 431.10000000000025 140.1499999999997 C 430.96000000000066 140.1099999999998 430.8200000000007 140.06999999999977 430.68000000000063 140.03999999999976 C 429.36000000000064 139.68999999999977 428.03000000000065 139.33999999999978 426.7000000000006 138.98999999999975 C 426.3800000000006 138.90999999999974 426.0600000000006 138.81999999999977 425.7500000000006 138.73999999999975 C 424.5200000000006 138.41999999999976 423.29000000000065 138.10999999999976 422.05000000000064 137.79999999999976 C 421.6300000000006 137.68999999999974 421.2000000000006 137.58999999999975 420.78000000000065 137.47999999999976 C 419.61000000000064 137.18999999999977 418.4400000000007 136.90999999999977 417.27000000000066 136.61999999999975 L 415.78000000000065 136.25999999999974 C 414.65000000000066 135.98999999999972 413.52000000000066 135.72999999999973 412.39000000000067 135.45999999999972 C 411.85000000000065 135.32999999999973 411.3100000000007 135.20999999999972 410.77000000000066 135.08999999999972 C 409.67000000000064 134.83999999999972 408.5700000000007 134.58999999999972 407.46000000000066 134.33999999999972 C 406.8800000000007 134.20999999999972 406.30000000000064 134.07999999999973 405.73000000000064 133.95999999999972 C 404.65000000000066 133.71999999999971 403.5700000000006 133.48999999999972 402.49000000000063 133.25999999999974 L 400.67000000000064 132.86999999999975 C 399.61000000000064 132.64999999999975 398.54000000000065 132.42999999999975 397.47000000000065 132.20999999999975 C 396.84000000000066 132.07999999999976 396.21000000000066 131.95999999999975 395.58000000000067 131.82999999999976 C 394.53000000000065 131.61999999999975 393.47000000000065 131.40999999999977 392.42000000000064 131.20999999999975 C 391.77000000000066 131.08999999999975 391.1300000000006 130.95999999999975 390.48000000000064 130.83999999999975 C 389.43000000000063 130.63999999999976 388.39000000000067 130.44999999999976 387.34000000000066 130.24999999999974 L 385.36000000000064 129.88999999999973 C 384.3200000000006 129.69999999999973 383.27000000000066 129.51999999999973 382.22000000000065 129.33999999999972 C 381.55000000000064 129.21999999999971 380.89000000000067 129.10999999999973 380.22000000000065 128.99999999999972 C 379.17000000000064 128.8199999999997 378.1300000000007 128.64999999999972 377.08000000000067 128.4799999999997 C 376.41000000000065 128.3699999999997 375.7400000000007 128.2699999999997 375.0600000000007 128.1599999999997 C 374.0100000000007 127.98999999999971 372.96000000000066 127.82999999999971 371.9100000000007 127.66999999999972 L 369.9000000000007 127.36999999999972 C 368.8400000000007 127.20999999999972 367.7900000000007 127.05999999999972 366.7300000000007 126.89999999999972 C 366.0600000000007 126.79999999999973 365.3900000000007 126.70999999999972 364.7200000000007 126.61999999999972 C 363.6600000000007 126.46999999999971 362.5900000000007 126.32999999999971 361.5300000000007 126.17999999999972 C 360.8700000000007 126.08999999999972 360.2100000000007 126.00999999999972 359.5500000000007 125.92999999999972 C 358.4600000000007 125.78999999999972 357.3800000000007 125.64999999999972 356.2900000000007 125.51999999999973 L 354.51000000000073 125.30999999999973 C 350.57000000000073 124.84999999999974 346.61000000000075 124.42999999999974 342.6400000000007 124.05999999999973 C 341.9800000000007 123.99999999999973 341.31000000000074 123.92999999999974 340.6500000000007 123.86999999999973 L 337.8000000000007 123.62999999999974 L 335.3100000000007 123.41999999999975 C 334.4100000000007 123.34999999999975 333.5000000000007 123.28999999999975 332.59000000000066 123.21999999999974 C 331.71000000000066 123.15999999999974 330.83000000000067 123.08999999999975 329.95000000000067 123.02999999999975 C 329.0700000000007 122.96999999999974 328.1800000000007 122.91999999999975 327.29000000000065 122.86999999999975 C 326.3800000000006 122.80999999999975 325.48000000000064 122.75999999999975 324.5700000000006 122.70999999999975 C 323.7000000000006 122.65999999999976 322.8300000000006 122.61999999999975 321.9600000000006 122.57999999999976 C 321.0400000000006 122.52999999999976 320.1100000000006 122.48999999999975 319.1900000000006 122.44999999999976 C 318.3300000000006 122.40999999999976 317.4600000000006 122.37999999999977 316.60000000000065 122.34999999999977 C 315.66000000000065 122.30999999999976 314.72000000000065 122.27999999999977 313.78000000000065 122.24999999999977 C 312.93000000000063 122.21999999999977 312.08000000000067 122.19999999999978 311.22000000000065 122.17999999999978 C 310.2600000000007 122.14999999999978 309.3100000000006 122.12999999999978 308.35000000000065 122.10999999999979 C 307.5100000000007 122.08999999999979 306.66000000000065 122.07999999999979 305.8200000000007 122.06999999999978 C 304.85000000000065 122.05999999999977 303.8700000000007 122.03999999999978 302.90000000000066 122.02999999999977 C 302.0700000000007 122.02999999999977 301.24000000000063 122.01999999999977 300.41000000000065 122.01999999999977 L 297.99000000000063 122.01999999999977 C 295.37000000000063 122.01999999999977 292.7500000000006 122.04999999999977 290.12000000000063 122.09999999999977 C 289.73000000000064 122.09999999999977 289.34000000000066 122.11999999999976 288.9600000000006 122.12999999999977 C 286.5500000000006 122.17999999999977 284.1300000000006 122.25999999999976 281.7100000000006 122.34999999999977 C 281.2200000000006 122.36999999999976 280.7300000000006 122.37999999999977 280.2400000000006 122.39999999999976 C 277.6200000000006 122.50999999999976 275.00000000000057 122.63999999999976 272.3700000000006 122.79999999999977 C 271.8000000000006 122.82999999999977 271.2300000000006 122.86999999999976 270.65000000000055 122.90999999999977 C 267.94000000000057 123.07999999999977 265.22000000000054 123.26999999999977 262.50000000000057 123.48999999999977 L 262.4900000000006 123.48999999999977 C 261.08000000000055 123.60999999999977 259.6500000000006 123.72999999999976 258.2100000000006 123.85999999999977 C 257.9200000000006 123.88999999999977 257.6300000000006 123.90999999999977 257.3400000000006 123.93999999999977 C 254.5100000000006 124.19999999999978 251.6300000000006 124.49999999999977 248.7200000000006 124.81999999999977 L 247.6300000000006 124.93999999999977 C 241.3200000000006 125.64999999999976 234.8400000000006 126.49999999999977 228.24000000000058 127.49999999999977 C 226.5400000000006 127.75999999999978 224.83000000000058 128.01999999999978 223.12000000000057 128.29999999999978 C 210.75550840467844 130.28678793533504 198.46180414451837 132.69149785708635 186.26000000000033 135.50999999999982 C 177.27393956824275 137.59145785761652 168.3441846920336 139.90892598269699 159.4800000000002 142.45999999999995 C 147.00000000000057 146.05999999999977 134.61000000000055 150.15999999999977 122.57000000000056 154.77999999999977 C 120.85000000000056 155.43999999999977 119.14000000000055 156.1099999999998 117.43000000000056 156.78999999999976 C 95.27000000000056 165.64999999999975 74.47000000000057 176.32999999999976 56.700000000000564 188.94999999999976 C 53.97000000000057 190.88999999999976 51.310000000000564 192.87999999999977 48.72000000000057 194.90999999999977 C 44.89375132683072 197.90775560888707 41.197060754975226 201.06729168429064 37.64000000000057 204.37999999999977 C 34.14000000000057 207.63999999999976 30.83000000000057 211.00999999999976 27.75000000000057 214.48999999999978 C 25.69000000000057 216.80999999999977 23.73000000000057 219.1699999999998 21.87000000000057 221.58999999999978 C 18.15000000000057 226.4199999999998 14.85000000000057 231.43999999999977 12.00000000000057 236.64999999999978 C 10.58000000000057 239.2599999999998 9.27000000000057 241.9199999999998 8.08000000000057 244.61999999999978 C 3.93000000000057 254.09999999999977 1.26000000000057 264.1799999999998 0.34000000000057007 274.89999999999975 C -1.19999999999943 292.94999999999976 3.20000000000057 311.9299999999997 12.73000000000057 330.89999999999975 C 13.935513367344809 333.2956036943741 15.202601173715783 335.65972278573463 16.530000000000612 337.9899999999998 Q 17.76000000000057 340.14999999999975 19.08000000000057 342.3099999999997 C 19.64000000000057 343.22999999999973 20.21000000000057 344.1499999999997 20.80000000000057 345.0599999999997 C 23.430000000000568 349.1899999999997 26.30000000000057 353.3199999999997 29.39000000000057 357.41999999999973 C 29.82000000000057 357.9899999999997 30.26000000000057 358.5599999999997 30.700000000000568 359.13999999999976 C 32.52167526115692 361.5018182095316 34.39207641863288 363.8256499506381 36.31000000000061 366.1099999999998 C 49.26000000000057 381.5399999999998 65.40000000000057 396.5499999999998 84.30000000000058 410.62999999999977 C 85.77000000000058 411.71999999999974 87.26000000000057 412.8099999999998 88.76000000000057 413.89999999999975 C 111.95000000000057 430.60999999999973 139.05000000000058 445.88999999999976 169.26000000000056 458.82999999999976 C 172.34000000000057 460.14999999999975 175.44000000000057 461.44999999999976 178.59000000000057 462.71999999999974 C 185.88000000000056 465.66999999999973 193.36000000000058 468.46999999999974 200.9800000000006 471.12999999999977 C 204.4800000000006 472.3499999999998 208.0000000000006 473.5399999999998 211.5700000000006 474.68999999999977 C 217.27000000000058 476.5399999999998 223.05000000000058 478.3099999999998 228.92000000000058 479.9899999999998 C 227.64000000000058 479.06999999999977 225.6300000000006 477.6099999999998 223.0700000000006 475.6699999999998 C 222.5100000000006 475.2499999999998 221.9300000000006 474.7999999999998 221.3200000000006 474.3299999999998 C 219.57861722723422 472.98791150470174 217.8485560064919 471.6311968287054 216.13000000000068 470.25999999999993 C 214.7900000000006 469.1899999999998 213.3800000000006 468.0399999999998 211.9100000000006 466.8299999999998 C 211.1600000000006 466.2099999999998 210.4000000000006 465.5699999999998 209.6200000000006 464.9199999999998 C 208.5100000000006 463.9899999999998 207.3800000000006 463.0299999999998 206.2200000000006 462.0299999999998 L 205.95000000000059 461.7899999999998 C 204.74020276133 460.74071722166343 203.53684683433605 459.684030715134 202.34000000000057 458.61999999999966 C 202.23000000000056 458.51999999999975 202.11000000000058 458.4199999999998 202.00000000000057 458.3099999999998 C 198.64571046177232 455.31985811871385 195.35497603104412 452.2591750311673 192.13000000000056 449.12999999999977 C 191.41000000000057 448.4299999999998 190.68000000000058 447.71999999999974 189.96000000000058 446.9999999999998 C 174.58000000000058 431.75999999999976 158.38000000000056 412.43999999999977 148.4100000000006 391.14999999999975 C 147.5000000000006 389.20999999999975 146.6500000000006 387.25999999999976 145.8500000000006 385.2999999999997 C 145.05000000000058 383.3399999999997 144.3100000000006 381.34999999999974 143.6300000000006 379.35999999999973 C 143.2900000000006 378.35999999999973 142.9700000000006 377.35999999999973 142.6600000000006 376.35999999999973 C 142.0400000000006 374.34999999999974 141.4900000000006 372.32999999999976 141.0100000000006 370.3099999999997 C 140.7300000000006 369.1399999999997 140.4800000000006 367.9599999999997 140.2500000000006 366.77999999999975 C 139.6800000000006 363.87999999999977 139.2600000000006 360.94999999999976 139.0000000000006 358.00999999999976 C 138.72518975650442 354.9047404521459 138.64169868818692 351.7855141398052 138.75000000000057 348.6699999999998 C 138.8600000000006 345.5399999999998 139.17000000000058 342.4099999999998 139.70000000000059 339.25999999999976 C 140.42000000000058 334.9799999999998 141.40000000000057 330.8599999999998 142.62000000000057 326.88999999999976 C 143.44000000000057 324.2399999999998 144.36000000000058 321.65999999999974 145.39000000000058 319.13999999999976 C 146.42000000000058 316.6199999999998 147.5400000000006 314.16999999999973 148.7600000000006 311.77999999999975 C 149.9800000000006 309.38999999999976 151.2900000000006 307.0599999999997 152.6900000000006 304.78999999999974 C 154.7900000000006 301.38999999999976 157.08000000000058 298.1299999999997 159.5300000000006 294.9999999999997 C 160.3500000000006 293.9599999999997 161.1900000000006 292.9299999999997 162.0400000000006 291.91999999999973 C 163.3100000000006 290.41999999999973 164.6300000000006 288.95999999999975 165.9800000000006 287.51999999999975 C 167.36000000000058 286.0499999999997 168.7600000000006 284.59999999999974 170.20000000000059 283.18999999999977 C 172.11000000000058 281.32999999999976 174.08000000000058 279.5399999999998 176.1000000000006 277.7899999999998 C 178.8800000000006 275.3899999999998 181.77000000000058 273.0999999999998 184.74000000000058 270.8999999999998 C 190.87000000000057 266.3499999999998 197.3500000000006 262.2299999999998 204.0100000000006 258.49999999999983 C 204.5900000000006 258.16999999999985 205.17000000000058 257.8399999999998 205.7500000000006 257.5199999999998 C 207.0000000000006 256.8299999999998 208.2600000000006 256.1599999999998 209.5200000000006 255.4999999999998 Q 211.3050000000006 254.5699999999998 213.0900000000006 253.6699999999998 C 254.8700000000006 232.7799999999998 300.6600000000006 225.9199999999998 311.4800000000006 224.6899999999998 C 313.5200000000006 224.4599999999998 315.56000000000057 224.2399999999998 317.6000000000006 224.0399999999998 L 319.1400000000006 223.8899999999998 C 320.7000000000006 223.73999999999978 322.2600000000006 223.5999999999998 323.8200000000006 223.45999999999978 C 324.2000000000006 223.42999999999978 324.5800000000006 223.3899999999998 324.9600000000006 223.3599999999998 C 325.0600000000006 223.3599999999998 325.1500000000006 223.33999999999978 325.2500000000006 223.32999999999979 C 327.3100000000006 223.1599999999998 329.36000000000064 223.0099999999998 331.41000000000065 222.8599999999998 C 331.8800000000007 222.82999999999979 332.34000000000066 222.79999999999978 332.8100000000006 222.7599999999998 C 334.72000000000065 222.6299999999998 336.6300000000006 222.5099999999998 338.54000000000065 222.4099999999998 C 338.6900000000006 222.4099999999998 338.85000000000065 222.3899999999998 339.0000000000006 222.3799999999998 C 341.0600000000006 222.26999999999978 343.12000000000063 222.1699999999998 345.18000000000063 222.0899999999998 C 345.62000000000063 222.0699999999998 346.05000000000064 222.0599999999998 346.49000000000063 222.0399999999998 Q 349.2500000000006 221.9349999999998 352.0100000000006 221.8599999999998 C 352.2500000000006 221.8599999999998 352.5000000000006 221.83999999999978 352.74000000000063 221.83999999999978 C 354.7700000000006 221.78999999999976 356.80000000000064 221.74999999999977 358.8200000000006 221.71999999999977 C 359.2800000000006 221.71999999999977 359.74000000000063 221.70999999999978 360.2000000000006 221.69999999999976 C 361.92000000000064 221.67999999999975 363.6400000000006 221.66999999999976 365.3500000000006 221.66999999999976 L 366.4300000000006 221.66999999999976 C 368.71000000000055 221.66999999999976 370.9900000000006 221.68999999999977 373.27000000000055 221.71999999999977 C 373.75000000000057 221.71999999999977 374.22000000000054 221.72999999999976 374.70000000000056 221.73999999999978 C 376.9300000000006 221.77999999999977 379.16000000000054 221.8199999999998 381.38000000000056 221.8899999999998 C 381.83000000000055 221.89999999999978 382.27000000000055 221.9199999999998 382.72000000000054 221.92999999999978 C 384.89000000000055 221.99999999999977 387.0500000000005 222.07999999999979 389.21000000000055 222.1699999999998 L 389.9300000000006 222.1999999999998 C 392.1200000000006 222.29999999999978 394.3000000000006 222.4099999999998 396.4800000000006 222.5299999999998 L 398.07000000000056 222.6199999999998 C 400.1800000000006 222.7399999999998 402.2900000000006 222.8799999999998 404.40000000000055 223.0299999999998 C 405.00000000000057 223.0699999999998 405.59000000000054 223.1199999999998 406.19000000000057 223.1599999999998 C 408.2900000000006 223.3099999999998 410.40000000000055 223.4699999999998 412.4900000000006 223.6499999999998 C 412.9800000000006 223.6899999999998 413.4700000000006 223.7399999999998 413.95000000000056 223.7799999999998 C 416.31748070131846 223.98768097442547 418.6841644233308 224.2043492024972 421.05000000000086 224.43 C 423.08000000000055 224.6299999999998 425.1000000000006 224.8399999999998 427.1200000000006 225.0599999999998 C 427.7900000000006 225.1299999999998 428.46000000000055 225.2099999999998 429.14000000000055 225.2799999999998 C 431.1100000000006 225.4999999999998 433.08000000000055 225.7299999999998 435.04000000000053 225.9599999999998 C 435.71000000000055 226.03999999999982 436.3800000000005 226.1299999999998 437.0500000000005 226.2099999999998 L 440.3900000000005 226.6299999999998 C 441.0200000000005 226.7099999999998 441.6600000000005 226.7899999999998 442.2900000000005 226.8799999999998 C 443.0100000000005 226.9699999999998 443.7200000000005 227.0699999999998 444.44000000000045 227.1699999999998 C 446.13000000000045 227.39999999999978 447.81000000000046 227.6299999999998 449.4800000000005 227.8799999999998 L 451.5800000000005 228.1799999999998 C 453.4500000000005 228.44999999999982 455.3100000000005 228.7399999999998 457.17000000000047 229.0299999999998 L 459.45000000000044 229.38999999999982 C 461.9963750330602 229.79136868946912 464.53977656742774 230.21137995202537 467.0800000000004 230.64999999999992 C 468.5400000000004 230.8999999999998 469.99000000000046 231.1499999999998 471.44000000000045 231.4099999999998 L 473.81000000000046 231.82999999999979 C 475.49000000000046 232.1299999999998 477.1600000000005 232.4399999999998 478.83000000000044 232.7599999999998 C 479.63000000000045 232.9099999999998 480.44000000000045 233.0599999999998 481.24000000000046 233.2199999999998 C 483.77241021751115 233.70430932742812 486.3024403816748 234.20098191565003 488.8300000000006 234.70999999999992 C 490.24000000000046 234.9999999999998 491.65000000000043 235.2799999999998 493.05000000000047 235.5799999999998 L 496.07000000000045 236.2099999999998 C 497.39000000000044 236.4899999999998 498.70000000000044 236.7699999999998 500.02000000000044 237.0599999999998 C 500.81000000000046 237.2299999999998 501.6000000000004 237.3999999999998 502.39000000000044 237.5799999999998 C 504.05000000000047 237.94999999999982 505.69000000000045 238.31999999999982 507.34000000000043 238.68999999999983 L 509.83000000000044 239.25999999999982 C 511.45000000000044 239.63999999999982 513.0800000000004 240.00999999999982 514.6900000000004 240.3999999999998 C 515.4800000000004 240.5899999999998 516.2700000000004 240.7799999999998 517.0500000000004 240.9699999999998 C 518.2600000000004 241.2599999999998 519.4600000000004 241.5499999999998 520.6600000000004 241.8499999999998 C 521.6700000000004 242.0999999999998 522.6700000000004 242.3399999999998 523.6700000000004 242.5899999999998 C 524.9900000000005 242.91999999999982 526.3100000000004 243.2499999999998 527.6300000000005 243.5899999999998 L 530.0900000000005 244.2199999999998 C 531.6400000000004 244.6199999999998 533.1800000000005 245.0199999999998 534.7200000000005 245.4299999999998 C 535.5300000000004 245.63999999999982 536.3400000000005 245.85999999999981 537.1400000000004 246.0699999999998 Q 539.0000000000005 246.5649999999998 540.8300000000005 247.0599999999998 C 541.8600000000005 247.3399999999998 542.8800000000005 247.6199999999998 543.9000000000005 247.8999999999998 C 545.0300000000005 248.2099999999998 546.1600000000005 248.5199999999998 547.2800000000005 248.8399999999998 C 548.0400000000005 249.0499999999998 548.8100000000005 249.2699999999998 549.5700000000005 249.4799999999998 C 551.0700000000005 249.89999999999978 552.5500000000005 250.32999999999979 554.0400000000005 250.7599999999998 C 554.8200000000005 250.98999999999978 555.6000000000005 251.20999999999978 556.3800000000006 251.4399999999998 C 556.8500000000006 251.57999999999979 557.3300000000006 251.7199999999998 557.8000000000005 251.8499999999998 C 558.8000000000005 252.1399999999998 559.7900000000005 252.4299999999998 560.7900000000005 252.7299999999998 C 561.5200000000006 252.9499999999998 562.2500000000006 253.1599999999998 562.9800000000006 253.3799999999998 C 564.1000000000006 253.7099999999998 565.2100000000006 254.04999999999978 566.3100000000006 254.3799999999998 C 567.2200000000006 254.6599999999998 568.1300000000007 254.9299999999998 569.0300000000007 255.2099999999998 C 570.2300000000007 255.5799999999998 571.4200000000006 255.9399999999998 572.6100000000007 256.30999999999983 C 573.3300000000007 256.52999999999986 574.0400000000006 256.74999999999983 574.7500000000007 256.97999999999985 C 576.1800000000006 257.42999999999984 577.6000000000007 257.8799999999998 579.0200000000007 258.3199999999998 C 579.7100000000007 258.53999999999985 580.3900000000007 258.7599999999998 581.0700000000006 258.9699999999998 C 582.3400000000006 259.3799999999998 583.6100000000006 259.7799999999998 584.8700000000006 260.1899999999998 C 585.6000000000006 260.42999999999984 586.3300000000006 260.65999999999985 587.0600000000006 260.8999999999998 L 590.4500000000006 262.0099999999998 L 592.1900000000006 262.5799999999998 C 593.6100000000006 263.04999999999984 595.0100000000007 263.5199999999998 596.4100000000007 263.98999999999984 C 597.0100000000007 264.1899999999998 597.6100000000007 264.3899999999998 598.2000000000006 264.58999999999986 C 599.6100000000006 265.0699999999999 601.0100000000006 265.53999999999985 602.3900000000007 266.01999999999987 C 602.9000000000007 266.1999999999999 603.4100000000007 266.3699999999999 603.9200000000006 266.54999999999984 C 605.1500000000007 266.96999999999986 606.3700000000007 267.3899999999998 607.5800000000006 267.8199999999998 C 608.0700000000006 267.98999999999984 608.5500000000006 268.1599999999998 609.0400000000006 268.3299999999998 C 610.3500000000006 268.7899999999998 611.6600000000007 269.24999999999983 612.9500000000006 269.6999999999998 C 613.4000000000007 269.85999999999984 613.8600000000006 270.0199999999998 614.3100000000006 270.17999999999984 C 615.7100000000006 270.67999999999984 617.1000000000006 271.16999999999985 618.4800000000006 271.66999999999985 C 618.8900000000006 271.8199999999998 619.3000000000006 271.96999999999986 619.7200000000006 272.10999999999984 C 621.1400000000006 272.61999999999983 622.5500000000006 273.1299999999998 623.9400000000006 273.6299999999998 L 624.6900000000006 273.8999999999998 Q 626.7150000000006 274.6349999999998 628.7100000000006 275.36999999999983 C 628.9200000000006 275.4499999999998 629.1300000000006 275.5199999999998 629.3400000000006 275.59999999999985 C 630.7900000000006 276.1299999999998 632.2300000000006 276.65999999999985 633.6400000000006 277.1899999999998 L 634.3600000000006 277.4599999999998 C 635.8000000000006 277.99999999999983 637.2300000000006 278.5299999999998 638.6300000000006 279.05999999999983 C 638.7500000000006 279.09999999999985 638.8700000000006 279.1499999999998 638.9800000000006 279.1899999999998 C 654.9700000000006 285.1999999999998 668.6500000000005 290.60999999999984 679.5400000000006 294.7699999999998 L 679.6300000000007 294.7999999999998 C 680.6900000000006 295.2099999999998 681.7300000000007 295.5999999999998 682.7400000000007 295.9799999999998 C 683.0200000000007 296.0899999999998 683.3100000000007 296.18999999999977 683.5900000000007 296.2999999999998 C 684.2600000000007 296.5499999999998 684.9100000000008 296.7999999999998 685.5600000000007 297.0399999999998 C 685.9900000000007 297.1999999999998 686.4200000000008 297.3599999999998 686.8400000000007 297.5099999999998 C 687.2100000000007 297.6499999999998 687.5800000000007 297.7799999999998 687.9500000000007 297.91999999999985 C 688.5800000000007 298.14999999999986 689.1900000000007 298.36999999999983 689.7900000000008 298.58999999999986 C 690.0900000000007 298.6999999999999 690.3700000000008 298.79999999999984 690.6600000000008 298.89999999999986 C 691.1900000000007 299.08999999999986 691.7100000000007 299.26999999999987 692.2100000000007 299.4499999999999 C 692.4900000000007 299.5499999999999 692.7700000000007 299.64999999999986 693.0500000000008 299.7399999999999 C 693.5700000000007 299.9199999999999 694.0800000000007 300.0899999999999 694.5700000000007 300.2599999999999 C 694.7700000000008 300.32999999999987 694.9700000000007 300.3899999999999 695.1600000000008 300.45999999999987 C 695.7400000000008 300.64999999999986 696.3100000000007 300.83999999999986 696.8500000000008 301.0099999999999 C 697.0200000000008 301.0599999999999 697.1900000000009 301.1199999999999 697.3600000000008 301.1699999999999 C 697.9100000000008 301.3399999999999 698.4500000000008 301.5099999999999 698.9700000000008 301.6599999999999 C 699.0800000000008 301.6899999999999 699.1900000000009 301.7199999999999 699.3000000000009 301.75999999999993 Q 700.0350000000009 301.9699999999999 700.7100000000008 302.1499999999999 L 700.9200000000009 302.2099999999999 C 701.4100000000009 302.3399999999999 701.8700000000009 302.44999999999993 702.3100000000009 302.5499999999999 L 702.5900000000008 302.6099999999999 C 703.0200000000008 302.6999999999999 703.4200000000009 302.7899999999999 703.8100000000009 302.8499999999999 C 703.8900000000009 302.8599999999999 703.9600000000008 302.8699999999999 704.0300000000009 302.88999999999993 C 704.4200000000009 302.9599999999999 704.7900000000009 303.00999999999993 705.1300000000009 303.04999999999995 L 705.1900000000009 303.04999999999995 C 705.5200000000009 303.0799999999999 705.8200000000008 303.09999999999997 706.1000000000008 303.09999999999997 L 706.2300000000008 303.09999999999997 C 706.4800000000008 303.09999999999997 706.7000000000008 303.08 706.9100000000008 303.05999999999995 C 706.9600000000007 303.05999999999995 707.0000000000008 303.04999999999995 707.0500000000008 303.03999999999996 C 707.2300000000007 303.01 707.4000000000008 302.96999999999997 707.5400000000008 302.91999999999996 C 707.71046444115 302.870518163194 707.8699642886073 302.78907143257754 708.0100000000008 302.67999999999995 C 708.0400000000008 302.65999999999997 708.0600000000007 302.63999999999993 708.0900000000008 302.61999999999995 C 708.2000000000008 302.53 708.2900000000009 302.41999999999996 708.3600000000008 302.29999999999995 Q 708.3600000000008 302.29999999999995 708.3600000000008 302.29999999999995 Q 708.4350000000009 302.15 708.4800000000008 301.96999999999997 C 708.4800000000008 301.92999999999995 708.4900000000008 301.88 708.5000000000008 301.83 C 708.5100000000008 301.75 708.5300000000008 301.65999999999997 708.5300000000008 301.57 L 708.5300000000008 301.39 Z" stroke-linecap="round" />
</g>
<g transform="matrix(30.43 4.73 -4.73 30.43 407.64 742.06)"  >
<path style="stroke: rgb(255,255,255); stroke-width: 5; stroke-dasharray: none; stroke-linecap: butt; stroke-dashoffset: 0; stroke-linejoin: miter; stroke-miterlimit: 4; fill: rgb(164,30,34); fill-rule: nonzero; opacity: 1;" vector-effect="non-scaling-stroke"  transform=" translate(-13.86, -16.26)" d="M 11.7647 14.2813 C 11.7509 13.3709 11.7441 12.9157 12.0311 12.75 C 12.3181 12.5843 12.7089 12.8178 13.4905 13.2849 L 13.6927 13.4058 C 13.9148 13.5385 14.0258 13.6048 14.1481 13.6203 C 14.2705 13.6358 14.3902 13.5986 14.6298 13.5242 L 14.8479 13.4565 C 15.6908 13.1947 16.1123 13.0638 16.3656 13.2978 C 16.619 13.5318 16.5364 13.9757 16.3713 14.8635 L 16.3286 15.0932 C 16.2817 15.3455 16.2582 15.4716 16.286 15.5949 C 16.3139 15.7181 16.3898 15.8245 16.5418 16.0372 L 16.6801 16.2309 C 17.2148 16.9795 17.4821 17.3538 17.3517 17.6641 C 17.2213 17.9745 16.7794 18.0153 15.8958 18.0969 L 15.6672 18.118 C 15.4161 18.1412 15.2906 18.1528 15.1854 18.2135 C 15.0803 18.2742 15.0075 18.3771 14.8619 18.583 L 14.7293 18.7704 C 14.2168 19.4948 13.9605 19.8571 13.6266 19.8148 C 13.2926 19.7726 13.1021 19.354 12.7211 18.5166 L 12.6226 18.3 C 12.5143 18.062 12.4602 17.943 12.3674 17.8573 C 12.2745 17.7716 12.1536 17.7288 11.9116 17.6433 L 11.6914 17.5655 C 10.8399 17.2646 10.4142 17.1141 10.3383 16.7777 C 10.2623 16.4413 10.5864 16.1418 11.2345 15.5426 L 11.4022 15.3876 C 11.5864 15.2174 11.6785 15.1322 11.7263 15.0186 C 11.774 14.9049 11.7721 14.7755 11.7682 14.5168 L 11.7647 14.2813 Z" stroke-linecap="round" />
</g>
<g transform="matrix(27.01 7.53 -7.53 27.01 373.31 281.01)"  >
<path style="stroke: rgb(255,255,255); stroke-width: 5; stroke-dasharray: none; stroke-linecap: butt; stroke-dashoffset: 0; stroke-linejoin: miter; stroke-miterlimit: 4; fill: rgb(164,30,34); fill-rule: nonzero; opacity: 1;" vector-effect="non-scaling-stroke"  transform=" translate(-13.86, -16.26)" d="M 11.7647 14.2813 C 11.7509 13.3709 11.7441 12.9157 12.0311 12.75 C 12.3181 12.5843 12.7089 12.8178 13.4905 13.2849 L 13.6927 13.4058 C 13.9148 13.5385 14.0258 13.6048 14.1481 13.6203 C 14.2705 13.6358 14.3902 13.5986 14.6298 13.5242 L 14.8479 13.4565 C 15.6908 13.1947 16.1123 13.0638 16.3656 13.2978 C 16.619 13.5318 16.5364 13.9757 16.3713 14.8635 L 16.3286 15.0932 C 16.2817 15.3455 16.2582 15.4716 16.286 15.5949 C 16.3139 15.7181 16.3898 15.8245 16.5418 16.0372 L 16.6801 16.2309 C 17.2148 16.9795 17.4821 17.3538 17.3517 17.6641 C 17.2213 17.9745 16.7794 18.0153 15.8958 18.0969 L 15.6672 18.118 C 15.4161 18.1412 15.2906 18.1528 15.1854 18.2135 C 15.0803 18.2742 15.0075 18.3771 14.8619 18.583 L 14.7293 18.7704 C 14.2168 19.4948 13.9605 19.8571 13.6266 19.8148 C 13.2926 19.7726 13.1021 19.354 12.7211 18.5166 L 12.6226 18.3 C 12.5143 18.062 12.4602 17.943 12.3674 17.8573 C 12.2745 17.7716 12.1536 17.7288 11.9116 17.6433 L 11.6914 17.5655 C 10.8399 17.2646 10.4142 17.1141 10.3383 16.7777 C 10.2623 16.4413 10.5864 16.1418 11.2345 15.5426 L 11.4022 15.3876 C 11.5864 15.2174 11.6785 15.1322 11.7263 15.0186 C 11.774 14.9049 11.7721 14.7755 11.7682 14.5168 L 11.7647 14.2813 Z" stroke-linecap="round" />
</g>
</svg>